<mxfile host="app.diagrams.net" modified="2022-10-15T15:34:19.934Z" agent="5.0 (Windows NT 10.0; Win64; x64) AppleWebKit/537.36 (KHTML, like Gecko) Chrome/106.0.0.0 Safari/537.36" etag="7Qkd1kVeZDoq0-r_EE6x" version="20.4.0" type="github" pages="7">
  <diagram id="GyyvgpNQD2YScgq6EcZ8" name="架构图">
    <mxGraphModel dx="2249" dy="1931" grid="1" gridSize="10" guides="1" tooltips="1" connect="1" arrows="1" fold="1" page="1" pageScale="1" pageWidth="827" pageHeight="1169" math="0" shadow="0">
      <root>
        <mxCell id="0" />
        <mxCell id="1" parent="0" />
        <mxCell id="JIFR-orrSNVKGbnrF8LJ-5" value="" style="endArrow=none;dashed=1;html=1;fontSize=20;comic=0;fontFamily=Helvetica;" parent="1" edge="1">
          <mxGeometry width="50" height="50" relative="1" as="geometry">
            <mxPoint x="-728.5" y="-183" as="sourcePoint" />
            <mxPoint x="672.5" y="-183" as="targetPoint" />
          </mxGeometry>
        </mxCell>
        <mxCell id="OnMQXUsQuM_lED_xJwlF-19" value="" style="endArrow=none;dashed=1;html=1;fontSize=20;strokeColor=#f79824;strokeWidth=2;rounded=0;opacity=50;fontFamily=Helvetica;" parent="1" edge="1">
          <mxGeometry width="50" height="50" relative="1" as="geometry">
            <mxPoint x="112.37" y="-1168" as="sourcePoint" />
            <mxPoint x="112" y="590" as="targetPoint" />
          </mxGeometry>
        </mxCell>
        <mxCell id="JIFR-orrSNVKGbnrF8LJ-2" value="" style="rounded=0;whiteSpace=wrap;html=1;fillColor=#8cc0b2;fontSize=20;strokeColor=none;comic=0;fontColor=#333333;fontFamily=Helvetica;" parent="1" vertex="1">
          <mxGeometry x="-516" y="-278.25" width="1100" height="50" as="geometry" />
        </mxCell>
        <mxCell id="OnMQXUsQuM_lED_xJwlF-27" value="" style="rounded=0;whiteSpace=wrap;html=1;fillColor=#78a798;fontSize=20;strokeColor=none;comic=0;fontColor=#333333;fontFamily=Helvetica;" parent="1" vertex="1">
          <mxGeometry x="-522" y="58" width="1100" height="50" as="geometry" />
        </mxCell>
        <mxCell id="OnMQXUsQuM_lED_xJwlF-23" value="" style="rounded=0;whiteSpace=wrap;html=1;fillColor=#8cc0b2;fontSize=20;strokeColor=none;comic=0;fontColor=#333333;fontFamily=Helvetica;" parent="1" vertex="1">
          <mxGeometry x="-522" y="-135.5" width="1100" height="95" as="geometry" />
        </mxCell>
        <mxCell id="nY-FzgrsEUIEL5FHPldE-1" value="" style="rounded=0;whiteSpace=wrap;html=1;fillColor=#d6e5e3;fontSize=20;strokeColor=none;fillStyle=auto;fontFamily=Helvetica;" parent="1" vertex="1">
          <mxGeometry x="-522" y="-740" width="1100" height="100" as="geometry" />
        </mxCell>
        <mxCell id="nY-FzgrsEUIEL5FHPldE-2" value="" style="rounded=0;whiteSpace=wrap;html=1;fillColor=#bbdfd7;fontSize=20;strokeColor=none;fontFamily=Helvetica;" parent="1" vertex="1">
          <mxGeometry x="-522" y="-590" width="1100" height="100" as="geometry" />
        </mxCell>
        <mxCell id="nY-FzgrsEUIEL5FHPldE-3" value="" style="rounded=0;whiteSpace=wrap;html=1;fillColor=#9fd8cb;fontSize=20;strokeColor=none;comic=0;fontFamily=Helvetica;" parent="1" vertex="1">
          <mxGeometry x="-522" y="-445" width="1100" height="95" as="geometry" />
        </mxCell>
        <mxCell id="nY-FzgrsEUIEL5FHPldE-5" value="浏览器" style="rounded=0;whiteSpace=wrap;html=1;fontSize=20;strokeColor=#31393c;fontFamily=Helvetica;" parent="1" vertex="1">
          <mxGeometry x="-472" y="-720" width="1020" height="60" as="geometry" />
        </mxCell>
        <mxCell id="nY-FzgrsEUIEL5FHPldE-6" value="请求代理层" style="rounded=0;whiteSpace=wrap;html=1;fontSize=20;strokeColor=#31393c;fontFamily=Helvetica;" parent="1" vertex="1">
          <mxGeometry x="-472" y="-570" width="1020" height="60" as="geometry" />
        </mxCell>
        <mxCell id="nY-FzgrsEUIEL5FHPldE-11" value="平台" style="rounded=0;whiteSpace=wrap;html=1;fontSize=18;strokeColor=#31393c;fontFamily=Helvetica;" parent="1" vertex="1">
          <mxGeometry x="-292" y="-427.5" width="120" height="60" as="geometry" />
        </mxCell>
        <mxCell id="nY-FzgrsEUIEL5FHPldE-12" value="" style="edgeStyle=orthogonalEdgeStyle;rounded=0;orthogonalLoop=1;jettySize=auto;html=1;endArrow=none;endFill=0;fontFamily=Helvetica;" parent="1" source="nY-FzgrsEUIEL5FHPldE-13" target="nY-FzgrsEUIEL5FHPldE-17" edge="1">
          <mxGeometry relative="1" as="geometry">
            <mxPoint x="-377" y="130" as="targetPoint" />
          </mxGeometry>
        </mxCell>
        <mxCell id="nY-FzgrsEUIEL5FHPldE-13" value="Portal 1.0.0" style="rounded=0;whiteSpace=wrap;html=1;verticalAlign=top;strokeColor=#313937;fontSize=14;fontFamily=Helvetica;" parent="1" vertex="1">
          <mxGeometry x="-482" y="200" width="210" height="100" as="geometry" />
        </mxCell>
        <mxCell id="nY-FzgrsEUIEL5FHPldE-14" value="" style="html=1;dashed=0;whitespace=wrap;fillColor=#2875E2;strokeColor=#ffffff;points=[[0.005,0.63,0],[0.1,0.2,0],[0.9,0.2,0],[0.5,0,0],[0.995,0.63,0],[0.72,0.99,0],[0.5,1,0],[0.28,0.99,0]];shape=mxgraph.kubernetes.icon;prIcon=pod;fontFamily=Helvetica;" parent="1" vertex="1">
          <mxGeometry x="-472" y="240" width="50" height="48" as="geometry" />
        </mxCell>
        <mxCell id="nY-FzgrsEUIEL5FHPldE-15" value="" style="html=1;dashed=0;whitespace=wrap;fillColor=#2875E2;strokeColor=#ffffff;points=[[0.005,0.63,0],[0.1,0.2,0],[0.9,0.2,0],[0.5,0,0],[0.995,0.63,0],[0.72,0.99,0],[0.5,1,0],[0.28,0.99,0]];shape=mxgraph.kubernetes.icon;prIcon=svc;fontFamily=Helvetica;" parent="1" vertex="1">
          <mxGeometry x="-332" y="240" width="50" height="48" as="geometry" />
        </mxCell>
        <mxCell id="nY-FzgrsEUIEL5FHPldE-16" value="" style="html=1;dashed=0;whitespace=wrap;fillColor=#2875E2;strokeColor=#ffffff;points=[[0.005,0.63,0],[0.1,0.2,0],[0.9,0.2,0],[0.5,0,0],[0.995,0.63,0],[0.72,0.99,0],[0.5,1,0],[0.28,0.99,0]];shape=mxgraph.kubernetes.icon;prIcon=cm;fontFamily=Helvetica;" parent="1" vertex="1">
          <mxGeometry x="-402" y="240" width="50" height="48" as="geometry" />
        </mxCell>
        <mxCell id="nY-FzgrsEUIEL5FHPldE-17" value="" style="ellipse;whiteSpace=wrap;html=1;aspect=fixed;fontFamily=Helvetica;" parent="1" vertex="1">
          <mxGeometry x="-387" y="75.5" width="20" height="20" as="geometry" />
        </mxCell>
        <mxCell id="nY-FzgrsEUIEL5FHPldE-18" value="" style="edgeStyle=orthogonalEdgeStyle;rounded=0;orthogonalLoop=1;jettySize=auto;html=1;endArrow=none;endFill=0;fontFamily=Helvetica;" parent="1" source="nY-FzgrsEUIEL5FHPldE-19" target="nY-FzgrsEUIEL5FHPldE-23" edge="1">
          <mxGeometry relative="1" as="geometry">
            <mxPoint x="-118" y="130" as="targetPoint" />
          </mxGeometry>
        </mxCell>
        <mxCell id="nY-FzgrsEUIEL5FHPldE-19" value="Control 1.0.0" style="rounded=0;whiteSpace=wrap;html=1;verticalAlign=middle;strokeColor=#313937;fontSize=14;fontFamily=Helvetica;" parent="1" vertex="1">
          <mxGeometry x="-240" y="200" width="84" height="60" as="geometry" />
        </mxCell>
        <mxCell id="nY-FzgrsEUIEL5FHPldE-23" value="" style="ellipse;whiteSpace=wrap;html=1;aspect=fixed;fontFamily=Helvetica;" parent="1" vertex="1">
          <mxGeometry x="-208" y="75.5" width="20" height="20" as="geometry" />
        </mxCell>
        <mxCell id="nY-FzgrsEUIEL5FHPldE-24" value="" style="edgeStyle=orthogonalEdgeStyle;rounded=0;orthogonalLoop=1;jettySize=auto;html=1;endArrow=none;endFill=0;fontFamily=Helvetica;" parent="1" source="nY-FzgrsEUIEL5FHPldE-25" target="nY-FzgrsEUIEL5FHPldE-29" edge="1">
          <mxGeometry relative="1" as="geometry">
            <mxPoint x="-13" y="130" as="targetPoint" />
          </mxGeometry>
        </mxCell>
        <mxCell id="nY-FzgrsEUIEL5FHPldE-25" value="Cert 1.0.0" style="rounded=0;whiteSpace=wrap;html=1;verticalAlign=middle;strokeColor=#313937;fontSize=14;fontFamily=Helvetica;" parent="1" vertex="1">
          <mxGeometry x="-126" y="200" width="84" height="60" as="geometry" />
        </mxCell>
        <mxCell id="nY-FzgrsEUIEL5FHPldE-29" value="" style="ellipse;whiteSpace=wrap;html=1;aspect=fixed;fontFamily=Helvetica;" parent="1" vertex="1">
          <mxGeometry x="-94" y="75.5" width="20" height="20" as="geometry" />
        </mxCell>
        <mxCell id="nY-FzgrsEUIEL5FHPldE-30" value="" style="edgeStyle=orthogonalEdgeStyle;rounded=0;orthogonalLoop=1;jettySize=auto;html=1;endArrow=none;endFill=0;fontFamily=Helvetica;" parent="1" source="nY-FzgrsEUIEL5FHPldE-31" target="nY-FzgrsEUIEL5FHPldE-35" edge="1">
          <mxGeometry relative="1" as="geometry">
            <mxPoint x="103" y="130" as="targetPoint" />
          </mxGeometry>
        </mxCell>
        <mxCell id="nY-FzgrsEUIEL5FHPldE-31" value="App 1.0.0" style="rounded=0;whiteSpace=wrap;html=1;verticalAlign=middle;strokeColor=#313937;fontSize=14;fontFamily=Helvetica;" parent="1" vertex="1">
          <mxGeometry x="-8" y="200" width="84" height="60" as="geometry" />
        </mxCell>
        <mxCell id="nY-FzgrsEUIEL5FHPldE-35" value="" style="ellipse;whiteSpace=wrap;html=1;aspect=fixed;fontFamily=Helvetica;" parent="1" vertex="1">
          <mxGeometry x="24" y="75.5" width="20" height="20" as="geometry" />
        </mxCell>
        <mxCell id="nY-FzgrsEUIEL5FHPldE-40" value="产品" style="text;html=1;align=center;verticalAlign=middle;resizable=0;points=[];autosize=1;fontSize=20;fontStyle=1;fontColor=#2E282A;fontFamily=Helvetica;" parent="1" vertex="1">
          <mxGeometry x="-662" y="-420" width="60" height="40" as="geometry" />
        </mxCell>
        <mxCell id="nY-FzgrsEUIEL5FHPldE-41" value="" style="endArrow=none;dashed=1;html=1;fontSize=20;fontFamily=Helvetica;" parent="1" edge="1">
          <mxGeometry width="50" height="50" relative="1" as="geometry">
            <mxPoint x="-722" y="-617" as="sourcePoint" />
            <mxPoint x="679" y="-617" as="targetPoint" />
          </mxGeometry>
        </mxCell>
        <mxCell id="nY-FzgrsEUIEL5FHPldE-42" value="请求层" style="text;html=1;align=center;verticalAlign=middle;resizable=0;points=[];autosize=1;fontSize=20;fontStyle=1;fontColor=#2E282A;fontFamily=Helvetica;" parent="1" vertex="1">
          <mxGeometry x="-672" y="-560" width="80" height="40" as="geometry" />
        </mxCell>
        <mxCell id="nY-FzgrsEUIEL5FHPldE-43" value="用户请求" style="text;html=1;align=center;verticalAlign=middle;resizable=0;points=[];autosize=1;fontSize=20;fontStyle=1;fontColor=#2E282A;fontFamily=Helvetica;" parent="1" vertex="1">
          <mxGeometry x="-682" y="-710" width="100" height="40" as="geometry" />
        </mxCell>
        <mxCell id="nY-FzgrsEUIEL5FHPldE-44" value="" style="endArrow=none;dashed=1;html=1;fontSize=20;comic=0;fontFamily=Helvetica;" parent="1" edge="1">
          <mxGeometry width="50" height="50" relative="1" as="geometry">
            <mxPoint x="-727.4999999999998" y="-470.0000000000002" as="sourcePoint" />
            <mxPoint x="673.5" y="-470.0000000000002" as="targetPoint" />
          </mxGeometry>
        </mxCell>
        <mxCell id="nY-FzgrsEUIEL5FHPldE-45" value="前端应用" style="text;html=1;align=center;verticalAlign=middle;resizable=0;points=[];autosize=1;fontSize=18;fontStyle=0;fontFamily=Helvetica;" parent="1" vertex="1">
          <mxGeometry x="-652" y="230" width="100" height="40" as="geometry" />
        </mxCell>
        <mxCell id="nY-FzgrsEUIEL5FHPldE-46" value="" style="endArrow=none;dashed=1;html=1;fontSize=20;comic=0;fontFamily=Helvetica;" parent="1" edge="1">
          <mxGeometry width="50" height="50" relative="1" as="geometry">
            <mxPoint x="-727.4999999999998" y="160" as="sourcePoint" />
            <mxPoint x="673.5" y="160" as="targetPoint" />
          </mxGeometry>
        </mxCell>
        <mxCell id="nY-FzgrsEUIEL5FHPldE-47" value="后端&lt;br style=&quot;font-size: 18px;&quot;&gt;微服务群" style="text;html=1;align=center;verticalAlign=middle;resizable=0;points=[];autosize=1;fontSize=18;fontStyle=0;fontFamily=Helvetica;" parent="1" vertex="1">
          <mxGeometry x="-652" y="435" width="100" height="60" as="geometry" />
        </mxCell>
        <mxCell id="nY-FzgrsEUIEL5FHPldE-48" value="Micro Service" style="rounded=1;whiteSpace=wrap;html=1;comic=0;fillColor=#313937;fontSize=16;strokeColor=none;fontColor=#fffffb;fontFamily=Helvetica;" parent="1" vertex="1">
          <mxGeometry x="-522" y="390" width="160" height="60" as="geometry" />
        </mxCell>
        <mxCell id="nY-FzgrsEUIEL5FHPldE-49" value="Micro Service" style="rounded=1;whiteSpace=wrap;html=1;comic=0;fillColor=#313937;fontSize=16;strokeColor=none;fontColor=#fffffb;fontFamily=Helvetica;" parent="1" vertex="1">
          <mxGeometry x="-304" y="390" width="160" height="60" as="geometry" />
        </mxCell>
        <mxCell id="nY-FzgrsEUIEL5FHPldE-52" value="Micro Service" style="rounded=1;whiteSpace=wrap;html=1;comic=0;fillColor=#313937;fontSize=16;strokeColor=none;fontColor=#fffffb;fontFamily=Helvetica;" parent="1" vertex="1">
          <mxGeometry x="-87" y="390" width="160" height="60" as="geometry" />
        </mxCell>
        <mxCell id="nY-FzgrsEUIEL5FHPldE-53" value="Micro Service" style="rounded=1;whiteSpace=wrap;html=1;comic=0;fillColor=#313937;fontSize=16;strokeColor=none;fontColor=#fffffb;fontFamily=Helvetica;" parent="1" vertex="1">
          <mxGeometry x="-522" y="499" width="160" height="60" as="geometry" />
        </mxCell>
        <mxCell id="nY-FzgrsEUIEL5FHPldE-54" value="Micro Service" style="rounded=1;whiteSpace=wrap;html=1;comic=0;fillColor=#313937;fontSize=16;strokeColor=none;fontColor=#fffffb;fontFamily=Helvetica;" parent="1" vertex="1">
          <mxGeometry x="-305" y="499" width="160" height="60" as="geometry" />
        </mxCell>
        <mxCell id="nY-FzgrsEUIEL5FHPldE-57" value="Micro Service" style="rounded=1;whiteSpace=wrap;html=1;comic=0;fillColor=#313937;fontSize=16;strokeColor=none;fontColor=#fffffb;fontFamily=Helvetica;" parent="1" vertex="1">
          <mxGeometry x="-88" y="499" width="160" height="60" as="geometry" />
        </mxCell>
        <mxCell id="nY-FzgrsEUIEL5FHPldE-58" value="Docker 集群" style="text;html=1;align=center;verticalAlign=middle;resizable=0;points=[];autosize=1;fontSize=20;fontStyle=1;fontColor=#2E282A;fontFamily=Helvetica;" parent="1" vertex="1">
          <mxGeometry x="-702" y="325" width="140" height="40" as="geometry" />
        </mxCell>
        <mxCell id="OnMQXUsQuM_lED_xJwlF-11" value="稳定客户" style="swimlane;fontSize=18;startSize=23;fillColor=none;strokeColor=none;fillStyle=auto;swimlaneFillColor=none;fontFamily=Helvetica;" parent="1" vertex="1">
          <mxGeometry x="-397" y="-1134" width="365" height="270" as="geometry" />
        </mxCell>
        <mxCell id="OnMQXUsQuM_lED_xJwlF-5" value="客户 B" style="points=[[0.35,0,0],[0.98,0.51,0],[1,0.71,0],[0.67,1,0],[0,0.795,0],[0,0.65,0]];verticalLabelPosition=bottom;sketch=0;html=1;verticalAlign=top;aspect=fixed;align=center;pointerEvents=1;shape=mxgraph.cisco19.user;fillColor=#2e282a;strokeColor=#005700;fontSize=16;fontColor=#000000;swimlaneFillColor=#2e282a;fontFamily=Helvetica;" parent="OnMQXUsQuM_lED_xJwlF-11" vertex="1">
          <mxGeometry x="212.5" y="50" width="60" height="60" as="geometry" />
        </mxCell>
        <mxCell id="OnMQXUsQuM_lED_xJwlF-7" value="客户 A" style="points=[[0.35,0,0],[0.98,0.51,0],[1,0.71,0],[0.67,1,0],[0,0.795,0],[0,0.65,0]];verticalLabelPosition=bottom;sketch=0;html=1;verticalAlign=top;aspect=fixed;align=center;pointerEvents=1;shape=mxgraph.cisco19.user;fillColor=#2e282a;strokeColor=#005700;fontSize=16;fontColor=#000000;swimlaneFillColor=#2e282a;fontFamily=Helvetica;" parent="OnMQXUsQuM_lED_xJwlF-11" vertex="1">
          <mxGeometry x="92.5" y="50" width="60" height="60" as="geometry" />
        </mxCell>
        <mxCell id="OnMQXUsQuM_lED_xJwlF-8" value="....." style="points=[[0.35,0,0],[0.98,0.51,0],[1,0.71,0],[0.67,1,0],[0,0.795,0],[0,0.65,0]];verticalLabelPosition=bottom;sketch=0;html=1;verticalAlign=top;aspect=fixed;align=center;pointerEvents=1;shape=mxgraph.cisco19.user;fillColor=#2e282a;strokeColor=#005700;fontSize=16;fontColor=#000000;swimlaneFillColor=#2e282a;fontFamily=Helvetica;" parent="OnMQXUsQuM_lED_xJwlF-11" vertex="1">
          <mxGeometry x="212.5" y="160" width="60" height="60" as="geometry" />
        </mxCell>
        <mxCell id="OnMQXUsQuM_lED_xJwlF-9" value="客户 C" style="points=[[0.35,0,0],[0.98,0.51,0],[1,0.71,0],[0.67,1,0],[0,0.795,0],[0,0.65,0]];verticalLabelPosition=bottom;sketch=0;html=1;verticalAlign=top;aspect=fixed;align=center;pointerEvents=1;shape=mxgraph.cisco19.user;fillColor=#2e282a;strokeColor=#005700;fontSize=16;fontColor=#000000;swimlaneFillColor=#2e282a;fontFamily=Helvetica;" parent="OnMQXUsQuM_lED_xJwlF-11" vertex="1">
          <mxGeometry x="92.5" y="160" width="60" height="60" as="geometry" />
        </mxCell>
        <mxCell id="OnMQXUsQuM_lED_xJwlF-12" value="" style="shape=flexArrow;endArrow=classic;html=1;rounded=0;fontSize=16;strokeColor=#2E282A;strokeWidth=2;fontFamily=Helvetica;" parent="1" edge="1">
          <mxGeometry width="50" height="50" relative="1" as="geometry">
            <mxPoint x="-215.09" y="-844" as="sourcePoint" />
            <mxPoint x="-215.09" y="-754" as="targetPoint" />
          </mxGeometry>
        </mxCell>
        <mxCell id="OnMQXUsQuM_lED_xJwlF-45" value="携带 cookie: appMode=stable" style="edgeLabel;html=1;align=center;verticalAlign=middle;resizable=0;points=[];fontSize=18;fontColor=#000000;fontFamily=Helvetica;" parent="OnMQXUsQuM_lED_xJwlF-12" vertex="1" connectable="0">
          <mxGeometry x="-0.3556" y="1" relative="1" as="geometry">
            <mxPoint as="offset" />
          </mxGeometry>
        </mxCell>
        <mxCell id="OnMQXUsQuM_lED_xJwlF-13" value="抢先体验客户" style="swimlane;fontSize=18;startSize=23;fillColor=none;strokeColor=none;fillStyle=hatch;swimlaneFillColor=none;sketch=0;fontFamily=Helvetica;" parent="1" vertex="1">
          <mxGeometry x="213" y="-1134" width="365" height="270" as="geometry">
            <mxRectangle x="213" y="-1134" width="150" height="40" as="alternateBounds" />
          </mxGeometry>
        </mxCell>
        <mxCell id="OnMQXUsQuM_lED_xJwlF-14" value="灰度客户 B" style="points=[[0.35,0,0],[0.98,0.51,0],[1,0.71,0],[0.67,1,0],[0,0.795,0],[0,0.65,0]];verticalLabelPosition=bottom;sketch=0;html=1;verticalAlign=top;aspect=fixed;align=center;pointerEvents=1;shape=mxgraph.cisco19.user;fillColor=#777DA7;strokeColor=#001DBC;fontSize=16;fontColor=#000000;swimlaneFillColor=#777DA7;fontFamily=Helvetica;" parent="OnMQXUsQuM_lED_xJwlF-13" vertex="1">
          <mxGeometry x="212.5" y="50" width="60" height="60" as="geometry" />
        </mxCell>
        <mxCell id="OnMQXUsQuM_lED_xJwlF-15" value="灰度客户 A" style="points=[[0.35,0,0],[0.98,0.51,0],[1,0.71,0],[0.67,1,0],[0,0.795,0],[0,0.65,0]];verticalLabelPosition=bottom;sketch=0;html=1;verticalAlign=top;aspect=fixed;align=center;pointerEvents=1;shape=mxgraph.cisco19.user;fillColor=#777DA7;strokeColor=#001DBC;fontSize=16;fontColor=#000000;swimlaneFillColor=#777DA7;fontFamily=Helvetica;" parent="OnMQXUsQuM_lED_xJwlF-13" vertex="1">
          <mxGeometry x="92.5" y="50" width="60" height="60" as="geometry" />
        </mxCell>
        <mxCell id="OnMQXUsQuM_lED_xJwlF-16" value="....." style="points=[[0.35,0,0],[0.98,0.51,0],[1,0.71,0],[0.67,1,0],[0,0.795,0],[0,0.65,0]];verticalLabelPosition=bottom;sketch=0;html=1;verticalAlign=top;aspect=fixed;align=center;pointerEvents=1;shape=mxgraph.cisco19.user;fillColor=#777DA7;strokeColor=#001DBC;fontSize=16;fontColor=#000000;swimlaneFillColor=#777DA7;fontFamily=Helvetica;" parent="OnMQXUsQuM_lED_xJwlF-13" vertex="1">
          <mxGeometry x="212.5" y="160" width="60" height="60" as="geometry" />
        </mxCell>
        <mxCell id="OnMQXUsQuM_lED_xJwlF-17" value="灰度客户 C" style="points=[[0.35,0,0],[0.98,0.51,0],[1,0.71,0],[0.67,1,0],[0,0.795,0],[0,0.65,0]];verticalLabelPosition=bottom;sketch=0;html=1;verticalAlign=top;aspect=fixed;align=center;pointerEvents=1;shape=mxgraph.cisco19.user;fillColor=#777DA7;strokeColor=#001DBC;fontSize=16;fontColor=#000000;swimlaneFillColor=#777DA7;fontFamily=Helvetica;" parent="OnMQXUsQuM_lED_xJwlF-13" vertex="1">
          <mxGeometry x="92.5" y="160" width="60" height="60" as="geometry" />
        </mxCell>
        <mxCell id="OnMQXUsQuM_lED_xJwlF-18" value="" style="shape=flexArrow;endArrow=classic;html=1;rounded=0;fontSize=16;strokeColor=#777DA7;sketch=0;strokeWidth=2;fontFamily=Helvetica;" parent="1" edge="1">
          <mxGeometry width="50" height="50" relative="1" as="geometry">
            <mxPoint x="395" y="-844" as="sourcePoint" />
            <mxPoint x="395" y="-754" as="targetPoint" />
          </mxGeometry>
        </mxCell>
        <mxCell id="OnMQXUsQuM_lED_xJwlF-46" value="携带 cookie: appMode=gray" style="edgeLabel;html=1;align=center;verticalAlign=middle;resizable=0;points=[];fontSize=16;fontColor=#000000;fontFamily=Helvetica;" parent="OnMQXUsQuM_lED_xJwlF-18" vertex="1" connectable="0">
          <mxGeometry x="-0.3278" y="-4" relative="1" as="geometry">
            <mxPoint as="offset" />
          </mxGeometry>
        </mxCell>
        <mxCell id="OnMQXUsQuM_lED_xJwlF-50" value="携带 cookie: appMode=gray" style="edgeLabel;html=1;align=center;verticalAlign=middle;resizable=0;points=[];fontSize=16;fontColor=#000000;fontFamily=Helvetica;" parent="OnMQXUsQuM_lED_xJwlF-18" vertex="1" connectable="0">
          <mxGeometry x="-0.3278" y="-4" relative="1" as="geometry">
            <mxPoint x="1" as="offset" />
          </mxGeometry>
        </mxCell>
        <mxCell id="OnMQXUsQuM_lED_xJwlF-51" value="携带 cookie: appMode=gray" style="edgeLabel;html=1;align=center;verticalAlign=middle;resizable=0;points=[];fontSize=16;fontColor=#000000;fontFamily=Helvetica;" parent="OnMQXUsQuM_lED_xJwlF-18" vertex="1" connectable="0">
          <mxGeometry x="-0.3278" y="-4" relative="1" as="geometry">
            <mxPoint x="1" as="offset" />
          </mxGeometry>
        </mxCell>
        <mxCell id="OnMQXUsQuM_lED_xJwlF-52" value="携带 cookie: appMode=canary" style="edgeLabel;html=1;align=center;verticalAlign=middle;resizable=0;points=[];fontSize=18;fontColor=#000000;fontFamily=Helvetica;" parent="OnMQXUsQuM_lED_xJwlF-18" vertex="1" connectable="0">
          <mxGeometry x="-0.3278" y="-4" relative="1" as="geometry">
            <mxPoint x="1" as="offset" />
          </mxGeometry>
        </mxCell>
        <mxCell id="OnMQXUsQuM_lED_xJwlF-21" value="" style="endArrow=none;dashed=1;html=1;fontSize=20;comic=0;fontFamily=Helvetica;" parent="1" edge="1">
          <mxGeometry width="50" height="50" relative="1" as="geometry">
            <mxPoint x="-727.4999999999998" y="-320" as="sourcePoint" />
            <mxPoint x="673.5" y="-320" as="targetPoint" />
          </mxGeometry>
        </mxCell>
        <mxCell id="OnMQXUsQuM_lED_xJwlF-22" value="微服务网关" style="text;html=1;align=center;verticalAlign=middle;resizable=0;points=[];autosize=1;fontSize=20;fontStyle=1;fontColor=#2E282A;fontFamily=Helvetica;" parent="1" vertex="1">
          <mxGeometry x="-692" y="-108" width="120" height="40" as="geometry" />
        </mxCell>
        <mxCell id="OnMQXUsQuM_lED_xJwlF-25" value="istio-gateway 流量染色" style="rounded=0;whiteSpace=wrap;html=1;fontSize=20;strokeColor=#31393c;fontFamily=Helvetica;" parent="1" vertex="1">
          <mxGeometry x="-472" y="-118" width="1020" height="60" as="geometry" />
        </mxCell>
        <mxCell id="OnMQXUsQuM_lED_xJwlF-26" value="" style="endArrow=none;dashed=1;html=1;fontSize=20;comic=0;fontFamily=Helvetica;" parent="1" edge="1">
          <mxGeometry width="50" height="50" relative="1" as="geometry">
            <mxPoint x="-727.4999999999998" y="8" as="sourcePoint" />
            <mxPoint x="673.5" y="8" as="targetPoint" />
          </mxGeometry>
        </mxCell>
        <mxCell id="OnMQXUsQuM_lED_xJwlF-28" value="Nginx" style="text;html=1;align=center;verticalAlign=middle;resizable=0;points=[];autosize=1;fontSize=20;fontStyle=1;fontColor=#2E282A;fontFamily=Helvetica;" parent="1" vertex="1">
          <mxGeometry x="-672" y="63" width="80" height="40" as="geometry" />
        </mxCell>
        <mxCell id="OnMQXUsQuM_lED_xJwlF-29" value="" style="edgeStyle=orthogonalEdgeStyle;rounded=0;orthogonalLoop=1;jettySize=auto;html=1;endArrow=none;endFill=0;fontFamily=Helvetica;" parent="1" source="OnMQXUsQuM_lED_xJwlF-30" target="OnMQXUsQuM_lED_xJwlF-34" edge="1">
          <mxGeometry relative="1" as="geometry">
            <mxPoint x="265" y="130" as="targetPoint" />
          </mxGeometry>
        </mxCell>
        <mxCell id="OnMQXUsQuM_lED_xJwlF-30" value="Cert 1.0.1" style="rounded=0;whiteSpace=wrap;html=1;verticalAlign=top;strokeColor=#777DA7;fontSize=14;fontFamily=Helvetica;" parent="1" vertex="1">
          <mxGeometry x="160" y="200" width="210" height="100" as="geometry" />
        </mxCell>
        <mxCell id="OnMQXUsQuM_lED_xJwlF-31" value="" style="html=1;dashed=0;whitespace=wrap;fillColor=#2875E2;strokeColor=#ffffff;points=[[0.005,0.63,0],[0.1,0.2,0],[0.9,0.2,0],[0.5,0,0],[0.995,0.63,0],[0.72,0.99,0],[0.5,1,0],[0.28,0.99,0]];shape=mxgraph.kubernetes.icon;prIcon=pod;fontFamily=Helvetica;" parent="1" vertex="1">
          <mxGeometry x="170" y="240" width="50" height="48" as="geometry" />
        </mxCell>
        <mxCell id="OnMQXUsQuM_lED_xJwlF-32" value="" style="html=1;dashed=0;whitespace=wrap;fillColor=#2875E2;strokeColor=#ffffff;points=[[0.005,0.63,0],[0.1,0.2,0],[0.9,0.2,0],[0.5,0,0],[0.995,0.63,0],[0.72,0.99,0],[0.5,1,0],[0.28,0.99,0]];shape=mxgraph.kubernetes.icon;prIcon=svc;fontFamily=Helvetica;" parent="1" vertex="1">
          <mxGeometry x="310" y="240" width="50" height="48" as="geometry" />
        </mxCell>
        <mxCell id="OnMQXUsQuM_lED_xJwlF-33" value="" style="html=1;dashed=0;whitespace=wrap;fillColor=#2875E2;strokeColor=#ffffff;points=[[0.005,0.63,0],[0.1,0.2,0],[0.9,0.2,0],[0.5,0,0],[0.995,0.63,0],[0.72,0.99,0],[0.5,1,0],[0.28,0.99,0]];shape=mxgraph.kubernetes.icon;prIcon=cm;fontFamily=Helvetica;" parent="1" vertex="1">
          <mxGeometry x="240" y="240" width="50" height="48" as="geometry" />
        </mxCell>
        <mxCell id="OnMQXUsQuM_lED_xJwlF-34" value="" style="ellipse;whiteSpace=wrap;html=1;aspect=fixed;fontFamily=Helvetica;" parent="1" vertex="1">
          <mxGeometry x="255" y="75.5" width="20" height="20" as="geometry" />
        </mxCell>
        <mxCell id="OnMQXUsQuM_lED_xJwlF-35" value="" style="edgeStyle=orthogonalEdgeStyle;rounded=0;orthogonalLoop=1;jettySize=auto;html=1;endArrow=none;endFill=0;fontFamily=Helvetica;" parent="1" source="UNmhw7URokJWCJeyuWq6-1" target="OnMQXUsQuM_lED_xJwlF-37" edge="1">
          <mxGeometry relative="1" as="geometry">
            <mxPoint x="562" y="130" as="targetPoint" />
            <mxPoint x="488" y="260" as="sourcePoint" />
          </mxGeometry>
        </mxCell>
        <mxCell id="OnMQXUsQuM_lED_xJwlF-37" value="" style="ellipse;whiteSpace=wrap;html=1;aspect=fixed;fontFamily=Helvetica;" parent="1" vertex="1">
          <mxGeometry x="472" y="75.5" width="20" height="20" as="geometry" />
        </mxCell>
        <mxCell id="nY-FzgrsEUIEL5FHPldE-7" value="100%" style="rounded=0;orthogonalLoop=1;jettySize=auto;html=1;entryX=0.5;entryY=0;entryDx=0;entryDy=0;endArrow=none;endFill=0;exitX=0.5;exitY=1;exitDx=0;exitDy=0;strokeColor=#2E282A;strokeWidth=2;fontSize=20;fontFamily=Helvetica;" parent="1" source="nY-FzgrsEUIEL5FHPldE-11" target="nY-FzgrsEUIEL5FHPldE-17" edge="1">
          <mxGeometry relative="1" as="geometry" />
        </mxCell>
        <mxCell id="nY-FzgrsEUIEL5FHPldE-9" value="90%" style="rounded=0;orthogonalLoop=1;jettySize=auto;html=1;entryX=0.5;entryY=0;entryDx=0;entryDy=0;endArrow=none;endFill=0;exitX=0.5;exitY=1;exitDx=0;exitDy=0;strokeColor=#2E282A;dashed=1;strokeWidth=2;fontSize=20;fontFamily=Helvetica;" parent="1" source="nY-FzgrsEUIEL5FHPldE-11" target="nY-FzgrsEUIEL5FHPldE-29" edge="1">
          <mxGeometry relative="1" as="geometry">
            <mxPoint x="-232" y="-370" as="sourcePoint" />
          </mxGeometry>
        </mxCell>
        <mxCell id="nY-FzgrsEUIEL5FHPldE-10" value="90%" style="edgeStyle=none;rounded=0;orthogonalLoop=1;jettySize=auto;html=1;exitX=0.5;exitY=1;exitDx=0;exitDy=0;entryX=0.5;entryY=0;entryDx=0;entryDy=0;endArrow=none;endFill=0;fontSize=20;strokeColor=#2E282A;dashed=1;strokeWidth=2;fontFamily=Helvetica;" parent="1" source="nY-FzgrsEUIEL5FHPldE-11" target="nY-FzgrsEUIEL5FHPldE-35" edge="1">
          <mxGeometry relative="1" as="geometry" />
        </mxCell>
        <mxCell id="OnMQXUsQuM_lED_xJwlF-48" value="10%" style="rounded=0;orthogonalLoop=1;jettySize=auto;html=1;entryX=0.5;entryY=0;entryDx=0;entryDy=0;endArrow=none;endFill=0;exitX=0.5;exitY=1;exitDx=0;exitDy=0;strokeColor=#777DA7;strokeWidth=2;sketch=0;fontSize=20;fontFamily=Helvetica;" parent="1" source="nY-FzgrsEUIEL5FHPldE-11" target="OnMQXUsQuM_lED_xJwlF-34" edge="1">
          <mxGeometry relative="1" as="geometry">
            <mxPoint x="-230" y="-370" as="sourcePoint" />
            <mxPoint x="249" y="-72.5" as="targetPoint" />
            <Array as="points" />
          </mxGeometry>
        </mxCell>
        <mxCell id="OnMQXUsQuM_lED_xJwlF-49" value="10%&amp;nbsp;" style="edgeStyle=none;rounded=0;orthogonalLoop=1;jettySize=auto;html=1;exitX=0.5;exitY=1;exitDx=0;exitDy=0;entryX=0.5;entryY=0;entryDx=0;entryDy=0;endArrow=none;endFill=0;fontSize=20;strokeColor=#777DA7;strokeWidth=2;sketch=0;fontFamily=Helvetica;" parent="1" source="nY-FzgrsEUIEL5FHPldE-11" target="OnMQXUsQuM_lED_xJwlF-37" edge="1">
          <mxGeometry relative="1" as="geometry">
            <mxPoint x="-232" y="-370" as="sourcePoint" />
            <mxPoint x="66" y="-72.5" as="targetPoint" />
            <Array as="points" />
          </mxGeometry>
        </mxCell>
        <mxCell id="OnMQXUsQuM_lED_xJwlF-54" value="灰度集群" style="text;html=1;align=center;verticalAlign=middle;resizable=0;points=[];autosize=1;fontSize=20;fontStyle=1;fontColor=#2E282A;fontFamily=Helvetica;" parent="1" vertex="1">
          <mxGeometry x="110" y="325" width="100" height="40" as="geometry" />
        </mxCell>
        <mxCell id="OnMQXUsQuM_lED_xJwlF-62" value="向上兼容" style="edgeStyle=orthogonalEdgeStyle;rounded=0;orthogonalLoop=1;jettySize=auto;html=1;fontSize=12;fontColor=#000000;strokeColor=#000000;strokeWidth=1;fontFamily=Helvetica;" parent="1" source="OnMQXUsQuM_lED_xJwlF-55" target="nY-FzgrsEUIEL5FHPldE-52" edge="1">
          <mxGeometry relative="1" as="geometry" />
        </mxCell>
        <mxCell id="OnMQXUsQuM_lED_xJwlF-55" value="Micro Service" style="rounded=1;whiteSpace=wrap;html=1;comic=0;fillColor=#777DA7;fontSize=16;strokeColor=none;fontColor=#fffffb;fillStyle=auto;fontFamily=Helvetica;" parent="1" vertex="1">
          <mxGeometry x="150" y="390" width="160" height="60" as="geometry" />
        </mxCell>
        <mxCell id="OnMQXUsQuM_lED_xJwlF-57" value="Micro Service" style="rounded=1;whiteSpace=wrap;html=1;comic=0;fillColor=#777DA7;fontSize=16;strokeColor=none;fontColor=#fffffb;fillStyle=auto;fontFamily=Helvetica;" parent="1" vertex="1">
          <mxGeometry x="149" y="499" width="160" height="60" as="geometry" />
        </mxCell>
        <mxCell id="OnMQXUsQuM_lED_xJwlF-58" value="Micro Service" style="rounded=1;whiteSpace=wrap;html=1;comic=0;fillColor=#777DA7;fontSize=16;strokeColor=none;fontColor=#fffffb;fillStyle=auto;fontFamily=Helvetica;" parent="1" vertex="1">
          <mxGeometry x="370" y="390" width="160" height="60" as="geometry" />
        </mxCell>
        <mxCell id="OnMQXUsQuM_lED_xJwlF-60" value="Micro Service" style="rounded=1;whiteSpace=wrap;html=1;comic=0;fillColor=#777DA7;fontSize=16;strokeColor=none;fontColor=#fffffb;fillStyle=auto;fontFamily=Helvetica;" parent="1" vertex="1">
          <mxGeometry x="369" y="499" width="160" height="60" as="geometry" />
        </mxCell>
        <mxCell id="w3q-HAxAk2p2rQf9QFaI-1" value="管理系统" style="rounded=0;whiteSpace=wrap;html=1;fontSize=18;strokeColor=#31393c;fontFamily=Helvetica;" parent="1" vertex="1">
          <mxGeometry y="-427.5" width="120" height="60" as="geometry" />
        </mxCell>
        <mxCell id="w3q-HAxAk2p2rQf9QFaI-2" value="系统" style="rounded=0;whiteSpace=wrap;html=1;fontSize=18;strokeColor=#31393c;fontFamily=Helvetica;" parent="1" vertex="1">
          <mxGeometry x="275" y="-427.5" width="120" height="60" as="geometry" />
        </mxCell>
        <mxCell id="w3q-HAxAk2p2rQf9QFaI-4" value="100%" style="rounded=0;orthogonalLoop=1;jettySize=auto;html=1;entryX=0.5;entryY=0;entryDx=0;entryDy=0;endArrow=none;endFill=0;exitX=0.5;exitY=1;exitDx=0;exitDy=0;strokeColor=#2E282A;strokeWidth=2;fontSize=20;fontFamily=Helvetica;" parent="1" target="nY-FzgrsEUIEL5FHPldE-23" edge="1">
          <mxGeometry relative="1" as="geometry">
            <mxPoint x="-232" y="-367.5" as="sourcePoint" />
            <mxPoint x="-198" y="-72.5" as="targetPoint" />
            <Array as="points" />
          </mxGeometry>
        </mxCell>
        <mxCell id="UNmhw7URokJWCJeyuWq6-1" value="App 1.0.1" style="rounded=0;whiteSpace=wrap;html=1;verticalAlign=middle;strokeColor=#777DA7;fontSize=14;fontFamily=Helvetica;" parent="1" vertex="1">
          <mxGeometry x="440" y="200" width="84" height="60" as="geometry" />
        </mxCell>
        <mxCell id="JIFR-orrSNVKGbnrF8LJ-1" value="" style="editableCssRules=.*;shape=image;verticalLabelPosition=bottom;labelBackgroundColor=#ffffff;verticalAlign=top;aspect=fixed;imageAspect=0;image=data:image/svg+xml,PHN2ZyB4bWxucz0iaHR0cDovL3d3dy53My5vcmcvMjAwMC9zdmciIHhtbG5zOnY9Imh0dHBzOi8vdmVjdGEuaW8vbmFubyIgd2lkdGg9IjE2MCIgaGVpZ2h0PSIyNDAiIHZpZXdCb3g9IjAgMCAxNjAgMjQwIj4mI3hhOwk8c3R5bGUgdHlwZT0idGV4dC9jc3MiPiYjeGE7CS5zdDB7ZmlsbDojNDY2YmIwO30mI3hhOwk8L3N0eWxlPiYjeGE7CTxwYXRoIGNsYXNzPSJzdDAiIGQ9Ik02MCAyNDBMMCAyMTBoMTYwem0wLTE2MEwwIDIwMGw2MC0xMHpNNzAgMHYxOTBsOTAgMTB6Ii8+JiN4YTs8L3N2Zz4=;fontColor=default;fontSize=16;strokeWidth=1;fontFamily=Helvetica;" parent="1" vertex="1">
          <mxGeometry x="-98.95" y="-111" width="29.9" height="46" as="geometry" />
        </mxCell>
        <mxCell id="JIFR-orrSNVKGbnrF8LJ-3" value="流量网关" style="text;html=1;align=center;verticalAlign=middle;resizable=0;points=[];autosize=1;fontSize=20;fontStyle=1;fontColor=#2E282A;fontFamily=Helvetica;" parent="1" vertex="1">
          <mxGeometry x="-683" y="-273.25" width="100" height="40" as="geometry" />
        </mxCell>
      </root>
    </mxGraphModel>
  </diagram>
  <diagram id="htdMLA_ThMbDkw1qVR1s" name="流程图">
    <mxGraphModel dx="1422" dy="762" grid="1" gridSize="10" guides="1" tooltips="1" connect="1" arrows="1" fold="1" page="1" pageScale="1" pageWidth="827" pageHeight="1169" math="0" shadow="0">
      <root>
        <mxCell id="0" />
        <mxCell id="1" parent="0" />
        <mxCell id="DoAOZ_LCY8oud2q8RfJg-65" value="" style="edgeStyle=orthogonalEdgeStyle;rounded=0;orthogonalLoop=1;jettySize=auto;html=1;fontSize=12;fontColor=#000000;strokeColor=#000000;strokeWidth=1;" parent="1" source="DoAOZ_LCY8oud2q8RfJg-67" target="DoAOZ_LCY8oud2q8RfJg-64" edge="1">
          <mxGeometry relative="1" as="geometry">
            <mxPoint x="170" y="270" as="sourcePoint" />
          </mxGeometry>
        </mxCell>
        <mxCell id="DoAOZ_LCY8oud2q8RfJg-64" value="划分用户&lt;br&gt;灰度版本和标准版本" style="whiteSpace=wrap;html=1;verticalAlign=middle;fillColor=#FFFFFF;strokeColor=default;fontColor=#000000;sketch=0;fillStyle=auto;perimeterSpacing=1;" parent="1" vertex="1">
          <mxGeometry x="294" y="240" width="120" height="60" as="geometry" />
        </mxCell>
        <mxCell id="DoAOZ_LCY8oud2q8RfJg-67" value="运维人员" style="shape=umlActor;verticalLabelPosition=bottom;verticalAlign=top;html=1;outlineConnect=0;fillStyle=auto;fontSize=12;fontColor=#000000;strokeColor=default;strokeWidth=2;fillColor=#FFFFFF;" parent="1" vertex="1">
          <mxGeometry x="125" y="240" width="45" height="60" as="geometry" />
        </mxCell>
        <mxCell id="O_koPZZ-P4RbRtnVJI6s-1" value="" style="edgeStyle=orthogonalEdgeStyle;rounded=0;orthogonalLoop=1;jettySize=auto;html=1;fontSize=16;fontColor=#000000;strokeColor=#000000;strokeWidth=1;" parent="1" source="O_koPZZ-P4RbRtnVJI6s-2" target="O_koPZZ-P4RbRtnVJI6s-4" edge="1">
          <mxGeometry relative="1" as="geometry" />
        </mxCell>
        <mxCell id="O_koPZZ-P4RbRtnVJI6s-2" value="前端界面" style="whiteSpace=wrap;html=1;verticalAlign=middle;sketch=0;fillStyle=auto;fontSize=16;" parent="1" vertex="1">
          <mxGeometry x="490" y="240" width="120" height="60" as="geometry" />
        </mxCell>
        <mxCell id="O_koPZZ-P4RbRtnVJI6s-3" value="否" style="edgeStyle=orthogonalEdgeStyle;rounded=0;orthogonalLoop=1;jettySize=auto;html=1;fontSize=16;fontColor=#000000;strokeColor=#000000;strokeWidth=1;startArrow=none;" parent="1" source="O_koPZZ-P4RbRtnVJI6s-7" target="O_koPZZ-P4RbRtnVJI6s-15" edge="1">
          <mxGeometry relative="1" as="geometry">
            <mxPoint x="686" y="500" as="targetPoint" />
          </mxGeometry>
        </mxCell>
        <mxCell id="O_koPZZ-P4RbRtnVJI6s-4" value="获取用户信息" style="whiteSpace=wrap;html=1;verticalAlign=middle;sketch=0;fillStyle=auto;fontSize=16;" parent="1" vertex="1">
          <mxGeometry x="490" y="355" width="120" height="60" as="geometry" />
        </mxCell>
        <mxCell id="O_koPZZ-P4RbRtnVJI6s-5" value="" style="edgeStyle=orthogonalEdgeStyle;rounded=0;orthogonalLoop=1;jettySize=auto;html=1;fontSize=16;fontColor=#000000;strokeColor=#000000;strokeWidth=1;" parent="1" source="O_koPZZ-P4RbRtnVJI6s-7" target="O_koPZZ-P4RbRtnVJI6s-18" edge="1">
          <mxGeometry relative="1" as="geometry">
            <mxPoint x="550" y="630" as="targetPoint" />
          </mxGeometry>
        </mxCell>
        <mxCell id="O_koPZZ-P4RbRtnVJI6s-6" value="是" style="edgeLabel;html=1;align=center;verticalAlign=middle;resizable=0;points=[];fontSize=16;fontColor=#000000;" parent="O_koPZZ-P4RbRtnVJI6s-5" vertex="1" connectable="0">
          <mxGeometry x="-0.3" relative="1" as="geometry">
            <mxPoint as="offset" />
          </mxGeometry>
        </mxCell>
        <mxCell id="O_koPZZ-P4RbRtnVJI6s-7" value="灰度用户？" style="rhombus;whiteSpace=wrap;html=1;fillStyle=auto;fontSize=16;fontColor=#000000;strokeColor=default;strokeWidth=1;fillColor=#FFFFFF;" parent="1" vertex="1">
          <mxGeometry x="500" y="470" width="100" height="100" as="geometry" />
        </mxCell>
        <mxCell id="O_koPZZ-P4RbRtnVJI6s-8" value="" style="edgeStyle=orthogonalEdgeStyle;rounded=0;orthogonalLoop=1;jettySize=auto;html=1;fontSize=16;fontColor=#000000;strokeColor=#000000;strokeWidth=1;endArrow=classic;endFill=1;" parent="1" source="O_koPZZ-P4RbRtnVJI6s-4" target="O_koPZZ-P4RbRtnVJI6s-7" edge="1">
          <mxGeometry relative="1" as="geometry">
            <mxPoint x="810" y="265" as="sourcePoint" />
            <mxPoint x="1083" y="205" as="targetPoint" />
          </mxGeometry>
        </mxCell>
        <mxCell id="O_koPZZ-P4RbRtnVJI6s-9" value="canary" style="edgeStyle=orthogonalEdgeStyle;rounded=0;orthogonalLoop=1;jettySize=auto;html=1;fontSize=16;fontColor=#000000;strokeColor=#000000;strokeWidth=1;exitX=0.5;exitY=1;exitDx=0;exitDy=0;" parent="1" target="O_koPZZ-P4RbRtnVJI6s-13" edge="1">
          <mxGeometry relative="1" as="geometry">
            <mxPoint x="550" y="690" as="sourcePoint" />
          </mxGeometry>
        </mxCell>
        <mxCell id="O_koPZZ-P4RbRtnVJI6s-10" style="edgeStyle=orthogonalEdgeStyle;rounded=0;orthogonalLoop=1;jettySize=auto;html=1;fontSize=16;fontColor=#000000;strokeColor=#000000;strokeWidth=1;" parent="1" source="O_koPZZ-P4RbRtnVJI6s-18" target="O_koPZZ-P4RbRtnVJI6s-15" edge="1">
          <mxGeometry relative="1" as="geometry">
            <mxPoint x="610" y="660" as="sourcePoint" />
          </mxGeometry>
        </mxCell>
        <mxCell id="O_koPZZ-P4RbRtnVJI6s-11" value="stable" style="edgeLabel;html=1;align=center;verticalAlign=middle;resizable=0;points=[];fontSize=16;fontFamily=阿里汉仪智能黑体;" parent="O_koPZZ-P4RbRtnVJI6s-10" vertex="1" connectable="0">
          <mxGeometry x="-0.1048" y="-2" relative="1" as="geometry">
            <mxPoint as="offset" />
          </mxGeometry>
        </mxCell>
        <mxCell id="O_koPZZ-P4RbRtnVJI6s-12" value="" style="edgeStyle=orthogonalEdgeStyle;rounded=0;orthogonalLoop=1;jettySize=auto;html=1;fontFamily=阿里汉仪智能黑体;fontSource=https%3A%2F%2Fhellowebfonts.oss-cn-beijing.aliyuncs.com%2F698F3099-E62F-4C3B-B30A-04FB735069FE%2F202209%2F44C5C1037925EC78.ttf;fontSize=16;endArrow=classic;endFill=1;" parent="1" source="O_koPZZ-P4RbRtnVJI6s-13" target="O_koPZZ-P4RbRtnVJI6s-19" edge="1">
          <mxGeometry relative="1" as="geometry" />
        </mxCell>
        <mxCell id="O_koPZZ-P4RbRtnVJI6s-13" value="灰度" style="whiteSpace=wrap;html=1;fillColor=#FFFFFF;fontColor=#000000;fillStyle=auto;strokeWidth=1;fontSize=16;" parent="1" vertex="1">
          <mxGeometry x="490" y="790" width="120" height="60" as="geometry" />
        </mxCell>
        <mxCell id="O_koPZZ-P4RbRtnVJI6s-14" style="edgeStyle=orthogonalEdgeStyle;rounded=0;orthogonalLoop=1;jettySize=auto;html=1;entryX=0.5;entryY=0;entryDx=0;entryDy=0;fontFamily=阿里汉仪智能黑体;fontSource=https%3A%2F%2Fhellowebfonts.oss-cn-beijing.aliyuncs.com%2F698F3099-E62F-4C3B-B30A-04FB735069FE%2F202209%2F44C5C1037925EC78.ttf;fontSize=16;endArrow=classic;endFill=1;" parent="1" source="O_koPZZ-P4RbRtnVJI6s-15" target="O_koPZZ-P4RbRtnVJI6s-19" edge="1">
          <mxGeometry relative="1" as="geometry">
            <Array as="points">
              <mxPoint x="756" y="880" />
              <mxPoint x="550" y="880" />
            </Array>
          </mxGeometry>
        </mxCell>
        <mxCell id="O_koPZZ-P4RbRtnVJI6s-15" value="标准版" style="whiteSpace=wrap;html=1;fillColor=#FFFFFF;fontColor=#000000;fillStyle=auto;strokeWidth=1;fontSize=16;" parent="1" vertex="1">
          <mxGeometry x="696" y="730" width="120" height="60" as="geometry" />
        </mxCell>
        <mxCell id="O_koPZZ-P4RbRtnVJI6s-16" style="edgeStyle=orthogonalEdgeStyle;rounded=0;orthogonalLoop=1;jettySize=auto;html=1;fontFamily=阿里汉仪智能黑体;fontSource=https%3A%2F%2Fhellowebfonts.oss-cn-beijing.aliyuncs.com%2F698F3099-E62F-4C3B-B30A-04FB735069FE%2F202209%2F44C5C1037925EC78.ttf;fontSize=16;endArrow=classic;endFill=1;" parent="1" source="O_koPZZ-P4RbRtnVJI6s-17" target="O_koPZZ-P4RbRtnVJI6s-2" edge="1">
          <mxGeometry relative="1" as="geometry" />
        </mxCell>
        <mxCell id="O_koPZZ-P4RbRtnVJI6s-17" value="开始" style="strokeWidth=1;html=1;shape=mxgraph.flowchart.start_1;whiteSpace=wrap;fontFamily=阿里汉仪智能黑体;fontSource=https%3A%2F%2Fhellowebfonts.oss-cn-beijing.aliyuncs.com%2F698F3099-E62F-4C3B-B30A-04FB735069FE%2F202209%2F44C5C1037925EC78.ttf;fontSize=16;" parent="1" vertex="1">
          <mxGeometry x="500" y="120" width="100" height="60" as="geometry" />
        </mxCell>
        <mxCell id="O_koPZZ-P4RbRtnVJI6s-18" value="&lt;span style=&quot;font-family: Helvetica; font-size: 16px;&quot;&gt;cookie值？&lt;/span&gt;" style="strokeWidth=1;html=1;shape=mxgraph.flowchart.decision;whiteSpace=wrap;fontFamily=阿里汉仪智能黑体;fontSource=https%3A%2F%2Fhellowebfonts.oss-cn-beijing.aliyuncs.com%2F698F3099-E62F-4C3B-B30A-04FB735069FE%2F202209%2F44C5C1037925EC78.ttf;fontSize=16;" parent="1" vertex="1">
          <mxGeometry x="500" y="620" width="100" height="100" as="geometry" />
        </mxCell>
        <mxCell id="O_koPZZ-P4RbRtnVJI6s-19" value="结束" style="ellipse;whiteSpace=wrap;html=1;fillColor=#FFFFFF;fontColor=#000000;fillStyle=auto;strokeWidth=1;fontSize=16;" parent="1" vertex="1">
          <mxGeometry x="490" y="910" width="120" height="60" as="geometry" />
        </mxCell>
      </root>
    </mxGraphModel>
  </diagram>
  <diagram id="0JRh6KBasGYJxoJ8mHPq" name="时序图">
    <mxGraphModel dx="2249" dy="762" grid="1" gridSize="10" guides="1" tooltips="1" connect="1" arrows="1" fold="1" page="1" pageScale="1" pageWidth="827" pageHeight="1169" math="0" shadow="0">
      <root>
        <mxCell id="0" />
        <mxCell id="1" parent="0" />
        <mxCell id="CXpkj87nbKCdid9SV2m_-1" value="alt" style="shape=umlFrame;whiteSpace=wrap;html=1;fontFamily=阿里汉仪智能黑体;fontSource=https%3A%2F%2Fhellowebfonts.oss-cn-beijing.aliyuncs.com%2F698F3099-E62F-4C3B-B30A-04FB735069FE%2F202209%2F44C5C1037925EC78.ttf;fontSize=16;fontColor=#14161A;" parent="1" vertex="1">
          <mxGeometry x="-100" y="320" width="780" height="350" as="geometry" />
        </mxCell>
        <mxCell id="CXpkj87nbKCdid9SV2m_-2" value="金丝雀平台" style="shape=umlLifeline;perimeter=lifelinePerimeter;whiteSpace=wrap;html=1;container=1;collapsible=0;recursiveResize=0;outlineConnect=0;rounded=1;shadow=0;comic=0;labelBackgroundColor=none;strokeWidth=1;fontFamily=阿里汉仪智能黑体;fontSize=16;align=center;fontSource=https%3A%2F%2Fhellowebfonts.oss-cn-beijing.aliyuncs.com%2F698F3099-E62F-4C3B-B30A-04FB735069FE%2F202209%2F44C5C1037925EC78.ttf;fontColor=#14161A;" parent="1" vertex="1">
          <mxGeometry x="693" y="90" width="100" height="610" as="geometry" />
        </mxCell>
        <mxCell id="CXpkj87nbKCdid9SV2m_-3" value="" style="html=1;points=[];perimeter=orthogonalPerimeter;rounded=0;shadow=0;comic=0;labelBackgroundColor=none;strokeWidth=1;fontFamily=阿里汉仪智能黑体;fontSize=16;align=center;fontSource=https%3A%2F%2Fhellowebfonts.oss-cn-beijing.aliyuncs.com%2F698F3099-E62F-4C3B-B30A-04FB735069FE%2F202209%2F44C5C1037925EC78.ttf;fontColor=#14161A;" parent="CXpkj87nbKCdid9SV2m_-2" vertex="1">
          <mxGeometry x="45" y="100" width="10" height="70" as="geometry" />
        </mxCell>
        <mxCell id="CXpkj87nbKCdid9SV2m_-4" value="标准版服务" style="shape=umlLifeline;perimeter=lifelinePerimeter;whiteSpace=wrap;html=1;container=1;collapsible=0;recursiveResize=0;outlineConnect=0;rounded=1;shadow=0;comic=0;labelBackgroundColor=none;strokeWidth=1;fontFamily=阿里汉仪智能黑体;fontSize=16;align=center;fontSource=https%3A%2F%2Fhellowebfonts.oss-cn-beijing.aliyuncs.com%2F698F3099-E62F-4C3B-B30A-04FB735069FE%2F202209%2F44C5C1037925EC78.ttf;fontColor=#14161A;" parent="1" vertex="1">
          <mxGeometry x="414" y="90" width="100" height="640" as="geometry" />
        </mxCell>
        <mxCell id="CXpkj87nbKCdid9SV2m_-5" value="" style="html=1;points=[];perimeter=orthogonalPerimeter;fontSize=16;fontFamily=阿里汉仪智能黑体;fontSource=https%3A%2F%2Fhellowebfonts.oss-cn-beijing.aliyuncs.com%2F698F3099-E62F-4C3B-B30A-04FB735069FE%2F202209%2F44C5C1037925EC78.ttf;fontColor=#14161A;" parent="CXpkj87nbKCdid9SV2m_-4" vertex="1">
          <mxGeometry x="45" y="270" width="10" height="96" as="geometry" />
        </mxCell>
        <mxCell id="CXpkj87nbKCdid9SV2m_-6" value="灰度版服务" style="shape=umlLifeline;perimeter=lifelinePerimeter;whiteSpace=wrap;html=1;container=1;collapsible=0;recursiveResize=0;outlineConnect=0;rounded=1;shadow=0;comic=0;labelBackgroundColor=none;strokeWidth=1;fontFamily=阿里汉仪智能黑体;fontSize=16;align=center;fontSource=https%3A%2F%2Fhellowebfonts.oss-cn-beijing.aliyuncs.com%2F698F3099-E62F-4C3B-B30A-04FB735069FE%2F202209%2F44C5C1037925EC78.ttf;fontColor=#14161A;" parent="1" vertex="1">
          <mxGeometry x="554" y="90" width="100" height="630" as="geometry" />
        </mxCell>
        <mxCell id="CXpkj87nbKCdid9SV2m_-7" value="" style="html=1;points=[];perimeter=orthogonalPerimeter;fontSize=16;fontFamily=阿里汉仪智能黑体;fontSource=https%3A%2F%2Fhellowebfonts.oss-cn-beijing.aliyuncs.com%2F698F3099-E62F-4C3B-B30A-04FB735069FE%2F202209%2F44C5C1037925EC78.ttf;fontColor=#14161A;" parent="CXpkj87nbKCdid9SV2m_-6" vertex="1">
          <mxGeometry x="46" y="455" width="10" height="80" as="geometry" />
        </mxCell>
        <mxCell id="CXpkj87nbKCdid9SV2m_-8" value="网关" style="shape=umlLifeline;perimeter=lifelinePerimeter;whiteSpace=wrap;html=1;container=1;collapsible=0;recursiveResize=0;outlineConnect=0;rounded=1;shadow=0;comic=0;labelBackgroundColor=none;strokeWidth=1;fontFamily=阿里汉仪智能黑体;fontSize=16;align=center;fontSource=https%3A%2F%2Fhellowebfonts.oss-cn-beijing.aliyuncs.com%2F698F3099-E62F-4C3B-B30A-04FB735069FE%2F202209%2F44C5C1037925EC78.ttf;fontColor=#14161A;" parent="1" vertex="1">
          <mxGeometry x="260" y="90" width="100" height="640" as="geometry" />
        </mxCell>
        <mxCell id="CXpkj87nbKCdid9SV2m_-9" value="" style="html=1;points=[];perimeter=orthogonalPerimeter;fontSize=16;fontFamily=阿里汉仪智能黑体;fontSource=https%3A%2F%2Fhellowebfonts.oss-cn-beijing.aliyuncs.com%2F698F3099-E62F-4C3B-B30A-04FB735069FE%2F202209%2F44C5C1037925EC78.ttf;fontColor=#14161A;" parent="CXpkj87nbKCdid9SV2m_-8" vertex="1">
          <mxGeometry x="45" y="110" width="10" height="70" as="geometry" />
        </mxCell>
        <mxCell id="CXpkj87nbKCdid9SV2m_-10" value="平台页面" style="shape=umlLifeline;participant=umlEntity;perimeter=lifelinePerimeter;html=1;container=1;collapsible=0;recursiveResize=0;verticalAlign=top;spacingTop=36;outlineConnect=0;fontSize=16;fontFamily=阿里汉仪智能黑体;fontSource=https%3A%2F%2Fhellowebfonts.oss-cn-beijing.aliyuncs.com%2F698F3099-E62F-4C3B-B30A-04FB735069FE%2F202209%2F44C5C1037925EC78.ttf;fontColor=#14161A;" parent="1" vertex="1">
          <mxGeometry x="130" y="90" width="40" height="630" as="geometry" />
        </mxCell>
        <mxCell id="CXpkj87nbKCdid9SV2m_-11" value="" style="html=1;points=[];perimeter=orthogonalPerimeter;fontSize=16;fontFamily=阿里汉仪智能黑体;fontSource=https%3A%2F%2Fhellowebfonts.oss-cn-beijing.aliyuncs.com%2F698F3099-E62F-4C3B-B30A-04FB735069FE%2F202209%2F44C5C1037925EC78.ttf;fontColor=#14161A;" parent="CXpkj87nbKCdid9SV2m_-10" vertex="1">
          <mxGeometry x="15" y="100" width="10" height="120" as="geometry" />
        </mxCell>
        <mxCell id="CXpkj87nbKCdid9SV2m_-12" value="" style="html=1;points=[];perimeter=orthogonalPerimeter;fontSize=16;fontFamily=阿里汉仪智能黑体;fontSource=https%3A%2F%2Fhellowebfonts.oss-cn-beijing.aliyuncs.com%2F698F3099-E62F-4C3B-B30A-04FB735069FE%2F202209%2F44C5C1037925EC78.ttf;fontColor=#14161A;" parent="CXpkj87nbKCdid9SV2m_-10" vertex="1">
          <mxGeometry x="15" y="264" width="10" height="130" as="geometry" />
        </mxCell>
        <mxCell id="CXpkj87nbKCdid9SV2m_-13" value="" style="html=1;points=[];perimeter=orthogonalPerimeter;fontSize=16;fontFamily=阿里汉仪智能黑体;fontSource=https%3A%2F%2Fhellowebfonts.oss-cn-beijing.aliyuncs.com%2F698F3099-E62F-4C3B-B30A-04FB735069FE%2F202209%2F44C5C1037925EC78.ttf;fontColor=#14161A;" parent="CXpkj87nbKCdid9SV2m_-10" vertex="1">
          <mxGeometry x="15" y="430" width="10" height="130" as="geometry" />
        </mxCell>
        <mxCell id="CXpkj87nbKCdid9SV2m_-14" value="访问" style="html=1;verticalAlign=bottom;startArrow=none;endArrow=block;startSize=8;rounded=0;fontSize=16;exitX=1.02;exitY=0.109;exitDx=0;exitDy=0;exitPerimeter=0;startFill=0;fontFamily=阿里汉仪智能黑体;fontSource=https%3A%2F%2Fhellowebfonts.oss-cn-beijing.aliyuncs.com%2F698F3099-E62F-4C3B-B30A-04FB735069FE%2F202209%2F44C5C1037925EC78.ttf;fontColor=#14161A;" parent="1" source="CXpkj87nbKCdid9SV2m_-25" target="CXpkj87nbKCdid9SV2m_-11" edge="1">
          <mxGeometry relative="1" as="geometry">
            <mxPoint x="61" y="190" as="sourcePoint" />
          </mxGeometry>
        </mxCell>
        <mxCell id="CXpkj87nbKCdid9SV2m_-15" value="流量经过" style="html=1;verticalAlign=bottom;startArrow=none;endArrow=block;startSize=8;rounded=0;fontSize=16;exitX=1.087;exitY=0.132;exitDx=0;exitDy=0;exitPerimeter=0;startFill=0;fontFamily=阿里汉仪智能黑体;fontSource=https%3A%2F%2Fhellowebfonts.oss-cn-beijing.aliyuncs.com%2F698F3099-E62F-4C3B-B30A-04FB735069FE%2F202209%2F44C5C1037925EC78.ttf;fontColor=#14161A;" parent="1" source="CXpkj87nbKCdid9SV2m_-11" target="CXpkj87nbKCdid9SV2m_-9" edge="1">
          <mxGeometry relative="1" as="geometry">
            <mxPoint x="180" y="210" as="sourcePoint" />
          </mxGeometry>
        </mxCell>
        <mxCell id="CXpkj87nbKCdid9SV2m_-16" value="查看灰度名单" style="html=1;verticalAlign=bottom;startArrow=none;startFill=0;endArrow=block;startSize=8;rounded=0;fontSize=16;exitX=1.067;exitY=0.225;exitDx=0;exitDy=0;exitPerimeter=0;fontFamily=阿里汉仪智能黑体;fontSource=https%3A%2F%2Fhellowebfonts.oss-cn-beijing.aliyuncs.com%2F698F3099-E62F-4C3B-B30A-04FB735069FE%2F202209%2F44C5C1037925EC78.ttf;fontColor=#14161A;" parent="1" source="CXpkj87nbKCdid9SV2m_-9" target="CXpkj87nbKCdid9SV2m_-3" edge="1">
          <mxGeometry width="60" relative="1" as="geometry">
            <mxPoint x="321" y="210" as="sourcePoint" />
            <mxPoint x="421" y="210" as="targetPoint" />
          </mxGeometry>
        </mxCell>
        <mxCell id="CXpkj87nbKCdid9SV2m_-17" value="平台版本" style="html=1;verticalAlign=bottom;endArrow=open;dashed=1;endSize=8;rounded=0;fontSize=16;exitX=-0.044;exitY=0.809;exitDx=0;exitDy=0;exitPerimeter=0;fontFamily=阿里汉仪智能黑体;fontSource=https%3A%2F%2Fhellowebfonts.oss-cn-beijing.aliyuncs.com%2F698F3099-E62F-4C3B-B30A-04FB735069FE%2F202209%2F44C5C1037925EC78.ttf;fontColor=#14161A;" parent="1" source="CXpkj87nbKCdid9SV2m_-3" target="CXpkj87nbKCdid9SV2m_-9" edge="1">
          <mxGeometry relative="1" as="geometry">
            <mxPoint x="430" y="240" as="sourcePoint" />
            <mxPoint x="350" y="240" as="targetPoint" />
          </mxGeometry>
        </mxCell>
        <mxCell id="CXpkj87nbKCdid9SV2m_-18" value="返回 cookie" style="html=1;verticalAlign=bottom;endArrow=open;dashed=1;endSize=8;rounded=0;fontSize=16;exitX=-0.083;exitY=0.952;exitDx=0;exitDy=0;exitPerimeter=0;fontFamily=阿里汉仪智能黑体;fontSource=https%3A%2F%2Fhellowebfonts.oss-cn-beijing.aliyuncs.com%2F698F3099-E62F-4C3B-B30A-04FB735069FE%2F202209%2F44C5C1037925EC78.ttf;fontColor=#14161A;" parent="1" source="CXpkj87nbKCdid9SV2m_-9" target="CXpkj87nbKCdid9SV2m_-11" edge="1">
          <mxGeometry relative="1" as="geometry">
            <mxPoint x="280" y="250" as="sourcePoint" />
            <mxPoint x="200" y="250" as="targetPoint" />
          </mxGeometry>
        </mxCell>
        <mxCell id="CXpkj87nbKCdid9SV2m_-19" value="下发操作" style="html=1;verticalAlign=bottom;endArrow=block;rounded=0;fontSize=16;exitX=0.917;exitY=0.156;exitDx=0;exitDy=0;exitPerimeter=0;fontFamily=阿里汉仪智能黑体;fontSource=https%3A%2F%2Fhellowebfonts.oss-cn-beijing.aliyuncs.com%2F698F3099-E62F-4C3B-B30A-04FB735069FE%2F202209%2F44C5C1037925EC78.ttf;fontColor=#14161A;" parent="1" source="CXpkj87nbKCdid9SV2m_-12" target="CXpkj87nbKCdid9SV2m_-5" edge="1">
          <mxGeometry relative="1" as="geometry">
            <mxPoint x="389" y="383" as="sourcePoint" />
          </mxGeometry>
        </mxCell>
        <mxCell id="CXpkj87nbKCdid9SV2m_-20" value="成功" style="html=1;verticalAlign=bottom;endArrow=open;dashed=1;endSize=8;exitX=0;exitY=0.921;rounded=0;fontSize=16;exitDx=0;exitDy=0;exitPerimeter=0;fontFamily=阿里汉仪智能黑体;fontSource=https%3A%2F%2Fhellowebfonts.oss-cn-beijing.aliyuncs.com%2F698F3099-E62F-4C3B-B30A-04FB735069FE%2F202209%2F44C5C1037925EC78.ttf;fontColor=#14161A;" parent="1" source="CXpkj87nbKCdid9SV2m_-5" target="CXpkj87nbKCdid9SV2m_-12" edge="1">
          <mxGeometry relative="1" as="geometry">
            <mxPoint x="389" y="459" as="targetPoint" />
          </mxGeometry>
        </mxCell>
        <mxCell id="CXpkj87nbKCdid9SV2m_-21" value="展示" style="html=1;verticalAlign=bottom;endArrow=open;dashed=1;endSize=8;rounded=0;fontSize=16;exitX=-0.1;exitY=0.95;exitDx=0;exitDy=0;exitPerimeter=0;fontFamily=阿里汉仪智能黑体;fontSource=https%3A%2F%2Fhellowebfonts.oss-cn-beijing.aliyuncs.com%2F698F3099-E62F-4C3B-B30A-04FB735069FE%2F202209%2F44C5C1037925EC78.ttf;fontColor=#14161A;" parent="1" source="CXpkj87nbKCdid9SV2m_-11" target="CXpkj87nbKCdid9SV2m_-25" edge="1">
          <mxGeometry relative="1" as="geometry">
            <mxPoint x="96" y="270" as="sourcePoint" />
            <mxPoint x="16" y="270" as="targetPoint" />
          </mxGeometry>
        </mxCell>
        <mxCell id="CXpkj87nbKCdid9SV2m_-22" value="下发操作" style="html=1;verticalAlign=bottom;endArrow=block;rounded=0;fontSize=16;exitX=1.572;exitY=0.224;exitDx=0;exitDy=0;exitPerimeter=0;fontFamily=阿里汉仪智能黑体;fontSource=https%3A%2F%2Fhellowebfonts.oss-cn-beijing.aliyuncs.com%2F698F3099-E62F-4C3B-B30A-04FB735069FE%2F202209%2F44C5C1037925EC78.ttf;fontColor=#14161A;" parent="1" source="CXpkj87nbKCdid9SV2m_-13" target="CXpkj87nbKCdid9SV2m_-7" edge="1">
          <mxGeometry relative="1" as="geometry">
            <mxPoint x="240" y="550" as="sourcePoint" />
          </mxGeometry>
        </mxCell>
        <mxCell id="CXpkj87nbKCdid9SV2m_-23" value="成功" style="html=1;verticalAlign=bottom;endArrow=open;dashed=1;endSize=8;exitX=0;exitY=0.95;rounded=0;fontSize=16;fontFamily=阿里汉仪智能黑体;fontSource=https%3A%2F%2Fhellowebfonts.oss-cn-beijing.aliyuncs.com%2F698F3099-E62F-4C3B-B30A-04FB735069FE%2F202209%2F44C5C1037925EC78.ttf;fontColor=#14161A;" parent="1" source="CXpkj87nbKCdid9SV2m_-7" target="CXpkj87nbKCdid9SV2m_-13" edge="1">
          <mxGeometry relative="1" as="geometry">
            <mxPoint x="530" y="621" as="targetPoint" />
          </mxGeometry>
        </mxCell>
        <mxCell id="CXpkj87nbKCdid9SV2m_-24" value="用户" style="shape=umlLifeline;participant=umlActor;perimeter=lifelinePerimeter;html=1;container=1;collapsible=0;recursiveResize=0;verticalAlign=top;spacingTop=36;outlineConnect=0;fontSize=16;fontFamily=阿里汉仪智能黑体;fontSource=https%3A%2F%2Fhellowebfonts.oss-cn-beijing.aliyuncs.com%2F698F3099-E62F-4C3B-B30A-04FB735069FE%2F202209%2F44C5C1037925EC78.ttf;fontColor=#14161A;" parent="1" vertex="1">
          <mxGeometry y="90" width="20" height="690" as="geometry" />
        </mxCell>
        <mxCell id="CXpkj87nbKCdid9SV2m_-25" value="" style="html=1;points=[];perimeter=orthogonalPerimeter;fontSize=16;fontFamily=阿里汉仪智能黑体;fontSource=https%3A%2F%2Fhellowebfonts.oss-cn-beijing.aliyuncs.com%2F698F3099-E62F-4C3B-B30A-04FB735069FE%2F202209%2F44C5C1037925EC78.ttf;fontColor=#14161A;" parent="CXpkj87nbKCdid9SV2m_-24" vertex="1">
          <mxGeometry x="5" y="90" width="10" height="130" as="geometry" />
        </mxCell>
        <mxCell id="CXpkj87nbKCdid9SV2m_-26" value="" style="html=1;points=[];perimeter=orthogonalPerimeter;fontSize=16;fontFamily=阿里汉仪智能黑体;fontSource=https%3A%2F%2Fhellowebfonts.oss-cn-beijing.aliyuncs.com%2F698F3099-E62F-4C3B-B30A-04FB735069FE%2F202209%2F44C5C1037925EC78.ttf;fontColor=#14161A;" parent="CXpkj87nbKCdid9SV2m_-24" vertex="1">
          <mxGeometry x="5" y="250" width="10" height="340" as="geometry" />
        </mxCell>
        <mxCell id="CXpkj87nbKCdid9SV2m_-27" value="" style="html=1;points=[];perimeter=orthogonalPerimeter;fontFamily=阿里汉仪智能黑体;fontSource=https%3A%2F%2Fhellowebfonts.oss-cn-beijing.aliyuncs.com%2F698F3099-E62F-4C3B-B30A-04FB735069FE%2F202209%2F44C5C1037925EC78.ttf;fontSize=13;fontColor=#14161A;fillColor=#FFFFFF;gradientColor=none;" parent="CXpkj87nbKCdid9SV2m_-24" vertex="1">
          <mxGeometry x="5" y="610" width="10" height="50" as="geometry" />
        </mxCell>
        <mxCell id="CXpkj87nbKCdid9SV2m_-28" value="响应" style="html=1;verticalAlign=bottom;endArrow=open;dashed=1;endSize=8;rounded=0;fontSize=16;exitX=0.04;exitY=0.94;exitDx=0;exitDy=0;exitPerimeter=0;fontFamily=阿里汉仪智能黑体;fontSource=https%3A%2F%2Fhellowebfonts.oss-cn-beijing.aliyuncs.com%2F698F3099-E62F-4C3B-B30A-04FB735069FE%2F202209%2F44C5C1037925EC78.ttf;fontColor=#14161A;" parent="1" source="CXpkj87nbKCdid9SV2m_-13" target="CXpkj87nbKCdid9SV2m_-26" edge="1">
          <mxGeometry x="0.512" relative="1" as="geometry">
            <mxPoint x="135.50000000000023" y="480" as="sourcePoint" />
            <mxPoint x="26" y="480" as="targetPoint" />
            <mxPoint as="offset" />
          </mxGeometry>
        </mxCell>
        <mxCell id="CXpkj87nbKCdid9SV2m_-29" value="操作" style="html=1;verticalAlign=bottom;endArrow=block;rounded=0;fontSize=16;exitX=1.08;exitY=0.557;exitDx=0;exitDy=0;exitPerimeter=0;fontFamily=阿里汉仪智能黑体;fontSource=https%3A%2F%2Fhellowebfonts.oss-cn-beijing.aliyuncs.com%2F698F3099-E62F-4C3B-B30A-04FB735069FE%2F202209%2F44C5C1037925EC78.ttf;fontColor=#14161A;" parent="1" source="CXpkj87nbKCdid9SV2m_-26" target="CXpkj87nbKCdid9SV2m_-13" edge="1">
          <mxGeometry x="-0.5158" width="80" relative="1" as="geometry">
            <mxPoint x="26" y="530" as="sourcePoint" />
            <mxPoint x="135.50000000000023" y="530" as="targetPoint" />
            <mxPoint as="offset" />
          </mxGeometry>
        </mxCell>
        <mxCell id="CXpkj87nbKCdid9SV2m_-30" value="响应" style="html=1;verticalAlign=bottom;endArrow=open;dashed=1;endSize=8;rounded=0;fontSize=16;exitX=-0.12;exitY=0.898;exitDx=0;exitDy=0;exitPerimeter=0;fontFamily=阿里汉仪智能黑体;fontSource=https%3A%2F%2Fhellowebfonts.oss-cn-beijing.aliyuncs.com%2F698F3099-E62F-4C3B-B30A-04FB735069FE%2F202209%2F44C5C1037925EC78.ttf;fontColor=#14161A;" parent="1" source="CXpkj87nbKCdid9SV2m_-12" target="CXpkj87nbKCdid9SV2m_-26" edge="1">
          <mxGeometry x="0.5091" relative="1" as="geometry">
            <mxPoint x="96" y="470" as="sourcePoint" />
            <mxPoint x="16" y="470" as="targetPoint" />
            <mxPoint as="offset" />
          </mxGeometry>
        </mxCell>
        <mxCell id="CXpkj87nbKCdid9SV2m_-31" value="操作" style="html=1;verticalAlign=bottom;endArrow=block;rounded=0;fontSize=16;exitX=1.06;exitY=0.061;exitDx=0;exitDy=0;exitPerimeter=0;fontFamily=阿里汉仪智能黑体;fontSource=https%3A%2F%2Fhellowebfonts.oss-cn-beijing.aliyuncs.com%2F698F3099-E62F-4C3B-B30A-04FB735069FE%2F202209%2F44C5C1037925EC78.ttf;fontColor=#14161A;" parent="1" source="CXpkj87nbKCdid9SV2m_-26" target="CXpkj87nbKCdid9SV2m_-12" edge="1">
          <mxGeometry x="-0.5147" y="1" width="80" relative="1" as="geometry">
            <mxPoint x="-54" y="390" as="sourcePoint" />
            <mxPoint x="26" y="390" as="targetPoint" />
            <mxPoint as="offset" />
          </mxGeometry>
        </mxCell>
        <mxCell id="CXpkj87nbKCdid9SV2m_-32" value="" style="endArrow=none;dashed=1;html=1;rounded=0;fontFamily=阿里汉仪智能黑体;fontSource=https%3A%2F%2Fhellowebfonts.oss-cn-beijing.aliyuncs.com%2F698F3099-E62F-4C3B-B30A-04FB735069FE%2F202209%2F44C5C1037925EC78.ttf;fontSize=16;exitX=0.002;exitY=0.511;exitDx=0;exitDy=0;exitPerimeter=0;strokeColor=#FF8000;fontColor=#14161A;" parent="1" source="CXpkj87nbKCdid9SV2m_-1" edge="1">
          <mxGeometry width="50" height="50" relative="1" as="geometry">
            <mxPoint x="80" y="520" as="sourcePoint" />
            <mxPoint x="680" y="499" as="targetPoint" />
          </mxGeometry>
        </mxCell>
        <mxCell id="CXpkj87nbKCdid9SV2m_-33" value="v=stable" style="text;html=1;strokeColor=none;fillColor=none;align=center;verticalAlign=middle;whiteSpace=wrap;rounded=0;fontFamily=阿里汉仪智能黑体;fontSource=https%3A%2F%2Fhellowebfonts.oss-cn-beijing.aliyuncs.com%2F698F3099-E62F-4C3B-B30A-04FB735069FE%2F202209%2F44C5C1037925EC78.ttf;fontSize=13;fontColor=#14161A;" parent="1" vertex="1">
          <mxGeometry x="-100" y="350" width="70" height="30" as="geometry" />
        </mxCell>
        <mxCell id="CXpkj87nbKCdid9SV2m_-34" value="v=canary" style="text;html=1;strokeColor=none;fillColor=none;align=center;verticalAlign=middle;whiteSpace=wrap;rounded=0;fontFamily=阿里汉仪智能黑体;fontSource=https%3A%2F%2Fhellowebfonts.oss-cn-beijing.aliyuncs.com%2F698F3099-E62F-4C3B-B30A-04FB735069FE%2F202209%2F44C5C1037925EC78.ttf;fontSize=13;fontColor=#FF8000;" parent="1" vertex="1">
          <mxGeometry x="-100" y="510" width="80" height="30" as="geometry" />
        </mxCell>
        <mxCell id="CXpkj87nbKCdid9SV2m_-35" value="" style="shape=umlDestroy;whiteSpace=wrap;html=1;strokeWidth=3;strokeColor=default;fontFamily=阿里汉仪智能黑体;fontSource=https%3A%2F%2Fhellowebfonts.oss-cn-beijing.aliyuncs.com%2F698F3099-E62F-4C3B-B30A-04FB735069FE%2F202209%2F44C5C1037925EC78.ttf;fontSize=13;fontColor=#14161A;fillColor=#FFFFFF;gradientColor=none;" parent="1" vertex="1">
          <mxGeometry x="135" y="700" width="30" height="30" as="geometry" />
        </mxCell>
        <mxCell id="CXpkj87nbKCdid9SV2m_-36" value="退出" style="html=1;verticalAlign=bottom;endArrow=block;rounded=0;strokeColor=#14161A;fontFamily=阿里汉仪智能黑体;fontSource=https%3A%2F%2Fhellowebfonts.oss-cn-beijing.aliyuncs.com%2F698F3099-E62F-4C3B-B30A-04FB735069FE%2F202209%2F44C5C1037925EC78.ttf;fontSize=13;fontColor=#14161A;exitX=0.9;exitY=0.3;exitDx=0;exitDy=0;exitPerimeter=0;" parent="1" source="CXpkj87nbKCdid9SV2m_-27" target="CXpkj87nbKCdid9SV2m_-35" edge="1">
          <mxGeometry width="80" relative="1" as="geometry">
            <mxPoint x="20" y="730" as="sourcePoint" />
            <mxPoint x="100" y="730" as="targetPoint" />
          </mxGeometry>
        </mxCell>
        <mxCell id="CXpkj87nbKCdid9SV2m_-37" value="系统服务" style="shape=note2;boundedLbl=1;whiteSpace=wrap;html=1;size=25;verticalAlign=middle;align=center;fontFamily=阿里汉仪智能黑体;fontSource=https%3A%2F%2Fhellowebfonts.oss-cn-beijing.aliyuncs.com%2F698F3099-E62F-4C3B-B30A-04FB735069FE%2F202209%2F44C5C1037925EC78.ttf;fontSize=14;fontColor=#14161A;fillColor=#FFFFFF;gradientColor=none;" parent="1" vertex="1">
          <mxGeometry x="416" y="40" width="96" height="40" as="geometry" />
        </mxCell>
        <mxCell id="CXpkj87nbKCdid9SV2m_-38" value="v=stable" style="text;html=1;strokeColor=none;fillColor=none;align=center;verticalAlign=middle;whiteSpace=wrap;rounded=0;fontFamily=阿里汉仪智能黑体;fontSource=https%3A%2F%2Fhellowebfonts.oss-cn-beijing.aliyuncs.com%2F698F3099-E62F-4C3B-B30A-04FB735069FE%2F202209%2F44C5C1037925EC78.ttf;fontSize=13;fontColor=#FF8000;" parent="1" vertex="1">
          <mxGeometry x="-100" y="350" width="70" height="30" as="geometry" />
        </mxCell>
      </root>
    </mxGraphModel>
  </diagram>
  <diagram id="H6QtCl05OQJnM1BaX3T6" name="泳道图">
    <mxGraphModel dx="1422" dy="762" grid="1" gridSize="10" guides="1" tooltips="1" connect="1" arrows="1" fold="1" page="1" pageScale="1" pageWidth="827" pageHeight="1169" math="0" shadow="0">
      <root>
        <mxCell id="0" />
        <mxCell id="1" parent="0" />
        <mxCell id="7iW2Jj4gjVRusgc40Ibj-4" value="是" style="edgeStyle=orthogonalEdgeStyle;rounded=0;orthogonalLoop=1;jettySize=auto;html=1;fontFamily=阿里汉仪智能黑体;fontSource=https%3A%2F%2Fhellowebfonts.oss-cn-beijing.aliyuncs.com%2F698F3099-E62F-4C3B-B30A-04FB735069FE%2F202209%2F44C5C1037925EC78.ttf;fontSize=16;fontColor=#14161A;startSize=32;" edge="1" parent="1" source="7iW2Jj4gjVRusgc40Ibj-1" target="7iW2Jj4gjVRusgc40Ibj-3">
          <mxGeometry relative="1" as="geometry" />
        </mxCell>
        <mxCell id="7iW2Jj4gjVRusgc40Ibj-6" value="否" style="edgeStyle=orthogonalEdgeStyle;rounded=0;orthogonalLoop=1;jettySize=auto;html=1;fontFamily=阿里汉仪智能黑体;fontSource=https%3A%2F%2Fhellowebfonts.oss-cn-beijing.aliyuncs.com%2F698F3099-E62F-4C3B-B30A-04FB735069FE%2F202209%2F44C5C1037925EC78.ttf;fontSize=16;fontColor=#14161A;startSize=32;" edge="1" parent="1" source="7iW2Jj4gjVRusgc40Ibj-1" target="7iW2Jj4gjVRusgc40Ibj-5">
          <mxGeometry relative="1" as="geometry" />
        </mxCell>
        <mxCell id="7iW2Jj4gjVRusgc40Ibj-1" value="灰度？" style="rhombus;whiteSpace=wrap;html=1;fontSize=16;fontFamily=阿里汉仪智能黑体;fontColor=#14161A;labelBackgroundColor=#ffffff;fontSource=https%3A%2F%2Fhellowebfonts.oss-cn-beijing.aliyuncs.com%2F698F3099-E62F-4C3B-B30A-04FB735069FE%2F202209%2F44C5C1037925EC78.ttf;" vertex="1" parent="1">
          <mxGeometry x="610" y="91" width="80" height="80" as="geometry" />
        </mxCell>
        <mxCell id="7iW2Jj4gjVRusgc40Ibj-2" value="" style="edgeStyle=orthogonalEdgeStyle;rounded=0;orthogonalLoop=1;jettySize=auto;html=1;fontFamily=阿里汉仪智能黑体;fontSource=https%3A%2F%2Fhellowebfonts.oss-cn-beijing.aliyuncs.com%2F698F3099-E62F-4C3B-B30A-04FB735069FE%2F202209%2F44C5C1037925EC78.ttf;fontSize=16;fontColor=#FFFFFF;startSize=32;" edge="1" parent="1" source="LIFJGfnc-sDyUZbHfwoA-4" target="7iW2Jj4gjVRusgc40Ibj-1">
          <mxGeometry relative="1" as="geometry" />
        </mxCell>
        <mxCell id="iegD0AUWYdg6uXx5Z0E7-6" value="开发" style="swimlane;startSize=32;horizontal=0;fontSize=16;fontColor=#FFFFFF;fillColor=#35A6FF;fontFamily=阿里汉仪智能黑体;fontSource=https%3A%2F%2Fhellowebfonts.oss-cn-beijing.aliyuncs.com%2F698F3099-E62F-4C3B-B30A-04FB735069FE%2F202209%2F44C5C1037925EC78.ttf;" vertex="1" parent="1">
          <mxGeometry x="140" y="60" width="840" height="270" as="geometry" />
        </mxCell>
        <mxCell id="LIFJGfnc-sDyUZbHfwoA-3" value="开发" style="shape=image;html=1;verticalAlign=top;verticalLabelPosition=bottom;labelBackgroundColor=#ffffff;imageAspect=0;aspect=fixed;image=https://cdn1.iconfinder.com/data/icons/heroicons-solid/20/user-group-128.png;fontSize=16;fontColor=#14161A;fontFamily=阿里汉仪智能黑体;fontSource=https%3A%2F%2Fhellowebfonts.oss-cn-beijing.aliyuncs.com%2F698F3099-E62F-4C3B-B30A-04FB735069FE%2F202209%2F44C5C1037925EC78.ttf;" vertex="1" parent="iegD0AUWYdg6uXx5Z0E7-6">
          <mxGeometry x="100" y="41" width="60" height="60" as="geometry" />
        </mxCell>
        <mxCell id="LIFJGfnc-sDyUZbHfwoA-4" value="完成需求" style="whiteSpace=wrap;html=1;fontSize=16;fontFamily=阿里汉仪智能黑体;verticalAlign=middle;fontColor=#14161A;labelBackgroundColor=#ffffff;fontSource=https%3A%2F%2Fhellowebfonts.oss-cn-beijing.aliyuncs.com%2F698F3099-E62F-4C3B-B30A-04FB735069FE%2F202209%2F44C5C1037925EC78.ttf;" vertex="1" parent="iegD0AUWYdg6uXx5Z0E7-6">
          <mxGeometry x="250" y="41" width="120" height="60" as="geometry" />
        </mxCell>
        <mxCell id="LIFJGfnc-sDyUZbHfwoA-5" value="" style="edgeStyle=orthogonalEdgeStyle;rounded=0;orthogonalLoop=1;jettySize=auto;html=1;fontFamily=阿里汉仪智能黑体;fontSource=https%3A%2F%2Fhellowebfonts.oss-cn-beijing.aliyuncs.com%2F698F3099-E62F-4C3B-B30A-04FB735069FE%2F202209%2F44C5C1037925EC78.ttf;fontSize=16;fontColor=#FFFFFF;startSize=32;" edge="1" parent="iegD0AUWYdg6uXx5Z0E7-6" source="LIFJGfnc-sDyUZbHfwoA-3" target="LIFJGfnc-sDyUZbHfwoA-4">
          <mxGeometry relative="1" as="geometry" />
        </mxCell>
        <mxCell id="A4E6ttJ7izZQIFZgkszB-3" style="edgeStyle=orthogonalEdgeStyle;rounded=0;orthogonalLoop=1;jettySize=auto;html=1;fontFamily=阿里汉仪智能黑体;fontSource=https%3A%2F%2Fhellowebfonts.oss-cn-beijing.aliyuncs.com%2F698F3099-E62F-4C3B-B30A-04FB735069FE%2F202209%2F44C5C1037925EC78.ttf;fontSize=16;fontColor=#14161A;startSize=32;" edge="1" parent="iegD0AUWYdg6uXx5Z0E7-6" source="7iW2Jj4gjVRusgc40Ibj-3" target="7iW2Jj4gjVRusgc40Ibj-5">
          <mxGeometry relative="1" as="geometry" />
        </mxCell>
        <mxCell id="7iW2Jj4gjVRusgc40Ibj-3" value="建立灰度分支&lt;br&gt;确认灰度策略" style="whiteSpace=wrap;html=1;fontSize=16;fontFamily=阿里汉仪智能黑体;fontColor=#14161A;labelBackgroundColor=#ffffff;fontSource=https%3A%2F%2Fhellowebfonts.oss-cn-beijing.aliyuncs.com%2F698F3099-E62F-4C3B-B30A-04FB735069FE%2F202209%2F44C5C1037925EC78.ttf;" vertex="1" parent="iegD0AUWYdg6uXx5Z0E7-6">
          <mxGeometry x="450" y="181" width="120" height="60" as="geometry" />
        </mxCell>
        <mxCell id="7iW2Jj4gjVRusgc40Ibj-5" value="上线" style="shape=process;whiteSpace=wrap;html=1;backgroundOutline=1;fontFamily=阿里汉仪智能黑体;fontSize=16;fontColor=#14161A;align=center;strokeColor=default;fillColor=default;" vertex="1" parent="iegD0AUWYdg6uXx5Z0E7-6">
          <mxGeometry x="640" y="181" width="120" height="60" as="geometry" />
        </mxCell>
        <mxCell id="iegD0AUWYdg6uXx5Z0E7-7" value="运维" style="swimlane;startSize=32;horizontal=0;fontSize=16;fontColor=#FFFFFF;fillColor=#FFB01A;fontFamily=阿里汉仪智能黑体;fontSource=https%3A%2F%2Fhellowebfonts.oss-cn-beijing.aliyuncs.com%2F698F3099-E62F-4C3B-B30A-04FB735069FE%2F202209%2F44C5C1037925EC78.ttf;" vertex="1" parent="1">
          <mxGeometry x="140" y="330" width="840" height="275" as="geometry" />
        </mxCell>
        <mxCell id="A4E6ttJ7izZQIFZgkszB-2" value="" style="edgeStyle=orthogonalEdgeStyle;rounded=0;orthogonalLoop=1;jettySize=auto;html=1;fontFamily=阿里汉仪智能黑体;fontSource=https%3A%2F%2Fhellowebfonts.oss-cn-beijing.aliyuncs.com%2F698F3099-E62F-4C3B-B30A-04FB735069FE%2F202209%2F44C5C1037925EC78.ttf;fontSize=16;fontColor=#14161A;startSize=32;startArrow=none;" edge="1" parent="iegD0AUWYdg6uXx5Z0E7-7" source="A4E6ttJ7izZQIFZgkszB-13" target="A4E6ttJ7izZQIFZgkszB-1">
          <mxGeometry relative="1" as="geometry" />
        </mxCell>
        <mxCell id="LIFJGfnc-sDyUZbHfwoA-2" value="运维人员" style="sketch=0;pointerEvents=1;shadow=0;dashed=0;html=1;strokeColor=none;fillColor=#505050;labelPosition=center;verticalLabelPosition=bottom;verticalAlign=top;outlineConnect=0;align=center;shape=mxgraph.office.services.user_services;fontSize=16;fontColor=#14161A;fontFamily=阿里汉仪智能黑体;fontSource=https%3A%2F%2Fhellowebfonts.oss-cn-beijing.aliyuncs.com%2F698F3099-E62F-4C3B-B30A-04FB735069FE%2F202209%2F44C5C1037925EC78.ttf;" vertex="1" parent="iegD0AUWYdg6uXx5Z0E7-7">
          <mxGeometry x="100" y="55" width="60" height="60" as="geometry" />
        </mxCell>
        <mxCell id="A4E6ttJ7izZQIFZgkszB-5" value="否" style="edgeStyle=orthogonalEdgeStyle;rounded=0;orthogonalLoop=1;jettySize=auto;html=1;fontFamily=阿里汉仪智能黑体;fontSource=https%3A%2F%2Fhellowebfonts.oss-cn-beijing.aliyuncs.com%2F698F3099-E62F-4C3B-B30A-04FB735069FE%2F202209%2F44C5C1037925EC78.ttf;fontSize=16;fontColor=#14161A;startSize=32;" edge="1" parent="iegD0AUWYdg6uXx5Z0E7-7" source="A4E6ttJ7izZQIFZgkszB-1" target="A4E6ttJ7izZQIFZgkszB-11">
          <mxGeometry relative="1" as="geometry">
            <mxPoint x="410" y="85" as="targetPoint" />
          </mxGeometry>
        </mxCell>
        <mxCell id="A4E6ttJ7izZQIFZgkszB-7" value="是" style="edgeStyle=orthogonalEdgeStyle;rounded=0;orthogonalLoop=1;jettySize=auto;html=1;fontFamily=阿里汉仪智能黑体;fontSource=https%3A%2F%2Fhellowebfonts.oss-cn-beijing.aliyuncs.com%2F698F3099-E62F-4C3B-B30A-04FB735069FE%2F202209%2F44C5C1037925EC78.ttf;fontSize=16;fontColor=#14161A;startSize=32;" edge="1" parent="iegD0AUWYdg6uXx5Z0E7-7" source="A4E6ttJ7izZQIFZgkszB-1" target="A4E6ttJ7izZQIFZgkszB-6">
          <mxGeometry relative="1" as="geometry" />
        </mxCell>
        <mxCell id="A4E6ttJ7izZQIFZgkszB-1" value="灰度？" style="rhombus;whiteSpace=wrap;html=1;fontSize=16;fontFamily=阿里汉仪智能黑体;verticalAlign=middle;fillColor=#FFFFFF;strokeColor=default;fontColor=#14161A;sketch=0;shadow=0;dashed=0;fontSource=https%3A%2F%2Fhellowebfonts.oss-cn-beijing.aliyuncs.com%2F698F3099-E62F-4C3B-B30A-04FB735069FE%2F202209%2F44C5C1037925EC78.ttf;" vertex="1" parent="iegD0AUWYdg6uXx5Z0E7-7">
          <mxGeometry x="410" y="45" width="80" height="80" as="geometry" />
        </mxCell>
        <mxCell id="A4E6ttJ7izZQIFZgkszB-9" value="" style="edgeStyle=orthogonalEdgeStyle;rounded=0;orthogonalLoop=1;jettySize=auto;html=1;fontFamily=阿里汉仪智能黑体;fontSource=https%3A%2F%2Fhellowebfonts.oss-cn-beijing.aliyuncs.com%2F698F3099-E62F-4C3B-B30A-04FB735069FE%2F202209%2F44C5C1037925EC78.ttf;fontSize=16;fontColor=#14161A;startSize=32;" edge="1" parent="iegD0AUWYdg6uXx5Z0E7-7" source="A4E6ttJ7izZQIFZgkszB-6" target="A4E6ttJ7izZQIFZgkszB-8">
          <mxGeometry relative="1" as="geometry" />
        </mxCell>
        <mxCell id="A4E6ttJ7izZQIFZgkszB-6" value="灰度&lt;br&gt;Docker容器集群" style="whiteSpace=wrap;html=1;fontSize=16;fontFamily=阿里汉仪智能黑体;fillColor=#FFFFFF;fontColor=#14161A;sketch=0;shadow=0;dashed=0;fontSource=https%3A%2F%2Fhellowebfonts.oss-cn-beijing.aliyuncs.com%2F698F3099-E62F-4C3B-B30A-04FB735069FE%2F202209%2F44C5C1037925EC78.ttf;" vertex="1" parent="iegD0AUWYdg6uXx5Z0E7-7">
          <mxGeometry x="390" y="180" width="120" height="60" as="geometry" />
        </mxCell>
        <mxCell id="A4E6ttJ7izZQIFZgkszB-8" value="金丝雀平台&lt;br&gt;设置灰度策略" style="whiteSpace=wrap;html=1;fontSize=16;fontFamily=阿里汉仪智能黑体;fillColor=#FFFFFF;fontColor=#14161A;sketch=0;shadow=0;dashed=0;fontSource=https%3A%2F%2Fhellowebfonts.oss-cn-beijing.aliyuncs.com%2F698F3099-E62F-4C3B-B30A-04FB735069FE%2F202209%2F44C5C1037925EC78.ttf;" vertex="1" parent="iegD0AUWYdg6uXx5Z0E7-7">
          <mxGeometry x="567" y="180" width="120" height="60" as="geometry" />
        </mxCell>
        <mxCell id="A4E6ttJ7izZQIFZgkszB-11" value="标准&lt;br&gt;Docker容器集群" style="whiteSpace=wrap;html=1;fontSize=16;fontFamily=阿里汉仪智能黑体;fillColor=#FFFFFF;fontColor=#14161A;sketch=0;shadow=0;dashed=0;fontSource=https%3A%2F%2Fhellowebfonts.oss-cn-beijing.aliyuncs.com%2F698F3099-E62F-4C3B-B30A-04FB735069FE%2F202209%2F44C5C1037925EC78.ttf;" vertex="1" parent="iegD0AUWYdg6uXx5Z0E7-7">
          <mxGeometry x="656" y="55" width="120" height="60" as="geometry" />
        </mxCell>
        <mxCell id="A4E6ttJ7izZQIFZgkszB-13" value="升级" style="whiteSpace=wrap;html=1;fontSize=16;fontFamily=阿里汉仪智能黑体;fillColor=#FFFFFF;fontColor=#14161A;sketch=0;shadow=0;dashed=0;fontSource=https%3A%2F%2Fhellowebfonts.oss-cn-beijing.aliyuncs.com%2F698F3099-E62F-4C3B-B30A-04FB735069FE%2F202209%2F44C5C1037925EC78.ttf;" vertex="1" parent="iegD0AUWYdg6uXx5Z0E7-7">
          <mxGeometry x="230" y="55" width="120" height="60" as="geometry" />
        </mxCell>
        <mxCell id="A4E6ttJ7izZQIFZgkszB-14" value="" style="edgeStyle=orthogonalEdgeStyle;rounded=0;orthogonalLoop=1;jettySize=auto;html=1;fontFamily=阿里汉仪智能黑体;fontSource=https%3A%2F%2Fhellowebfonts.oss-cn-beijing.aliyuncs.com%2F698F3099-E62F-4C3B-B30A-04FB735069FE%2F202209%2F44C5C1037925EC78.ttf;fontSize=16;fontColor=#14161A;startSize=32;endArrow=classic;endFill=1;" edge="1" parent="iegD0AUWYdg6uXx5Z0E7-7" source="LIFJGfnc-sDyUZbHfwoA-2" target="A4E6ttJ7izZQIFZgkszB-13">
          <mxGeometry relative="1" as="geometry">
            <mxPoint x="300" y="415" as="sourcePoint" />
            <mxPoint x="550" y="415" as="targetPoint" />
          </mxGeometry>
        </mxCell>
        <mxCell id="iegD0AUWYdg6uXx5Z0E7-8" value="用户" style="swimlane;startSize=32;horizontal=0;fontSize=16;fontColor=#14161A;fillColor=#FFFFFF;fontFamily=阿里汉仪智能黑体;fontSource=https%3A%2F%2Fhellowebfonts.oss-cn-beijing.aliyuncs.com%2F698F3099-E62F-4C3B-B30A-04FB735069FE%2F202209%2F44C5C1037925EC78.ttf;" vertex="1" parent="1">
          <mxGeometry x="140" y="605" width="840" height="200" as="geometry" />
        </mxCell>
        <mxCell id="V6nitjvZ4vmrLIBDQCaR-2" value="" style="edgeStyle=orthogonalEdgeStyle;rounded=0;orthogonalLoop=1;jettySize=auto;html=1;fontFamily=阿里汉仪智能黑体;fontSource=https%3A%2F%2Fhellowebfonts.oss-cn-beijing.aliyuncs.com%2F698F3099-E62F-4C3B-B30A-04FB735069FE%2F202209%2F44C5C1037925EC78.ttf;fontSize=16;fontColor=#14161A;startSize=32;" edge="1" parent="iegD0AUWYdg6uXx5Z0E7-8" source="LIFJGfnc-sDyUZbHfwoA-1" target="V6nitjvZ4vmrLIBDQCaR-1">
          <mxGeometry relative="1" as="geometry" />
        </mxCell>
        <mxCell id="LIFJGfnc-sDyUZbHfwoA-1" value="用户" style="points=[[0.35,0,0],[0.98,0.51,0],[1,0.71,0],[0.67,1,0],[0,0.795,0],[0,0.65,0]];verticalLabelPosition=bottom;sketch=0;html=1;verticalAlign=top;aspect=fixed;align=center;pointerEvents=1;shape=mxgraph.cisco19.user;fillColor=#005073;strokeColor=none;fontSize=16;fontColor=#14161A;fontFamily=阿里汉仪智能黑体;fontSource=https%3A%2F%2Fhellowebfonts.oss-cn-beijing.aliyuncs.com%2F698F3099-E62F-4C3B-B30A-04FB735069FE%2F202209%2F44C5C1037925EC78.ttf;" vertex="1" parent="iegD0AUWYdg6uXx5Z0E7-8">
          <mxGeometry x="100" y="67" width="60" height="60" as="geometry" />
        </mxCell>
        <mxCell id="V6nitjvZ4vmrLIBDQCaR-1" value="访问系统" style="whiteSpace=wrap;html=1;fontSize=16;fontFamily=阿里汉仪智能黑体;verticalAlign=middle;fillColor=#FFFFFF;strokeColor=default;fontColor=#14161A;sketch=0;fontSource=https%3A%2F%2Fhellowebfonts.oss-cn-beijing.aliyuncs.com%2F698F3099-E62F-4C3B-B30A-04FB735069FE%2F202209%2F44C5C1037925EC78.ttf;" vertex="1" parent="iegD0AUWYdg6uXx5Z0E7-8">
          <mxGeometry x="240" y="67" width="120" height="60" as="geometry" />
        </mxCell>
        <mxCell id="A4E6ttJ7izZQIFZgkszB-22" value="否" style="edgeStyle=orthogonalEdgeStyle;rounded=0;orthogonalLoop=1;jettySize=auto;html=1;fontFamily=阿里汉仪智能黑体;fontSource=https%3A%2F%2Fhellowebfonts.oss-cn-beijing.aliyuncs.com%2F698F3099-E62F-4C3B-B30A-04FB735069FE%2F202209%2F44C5C1037925EC78.ttf;fontSize=16;fontColor=#14161A;endArrow=classic;endFill=1;startSize=32;" edge="1" parent="iegD0AUWYdg6uXx5Z0E7-8" source="A4E6ttJ7izZQIFZgkszB-15" target="A4E6ttJ7izZQIFZgkszB-18">
          <mxGeometry relative="1" as="geometry" />
        </mxCell>
        <mxCell id="A4E6ttJ7izZQIFZgkszB-23" value="是" style="edgeStyle=orthogonalEdgeStyle;rounded=0;orthogonalLoop=1;jettySize=auto;html=1;fontFamily=阿里汉仪智能黑体;fontSource=https%3A%2F%2Fhellowebfonts.oss-cn-beijing.aliyuncs.com%2F698F3099-E62F-4C3B-B30A-04FB735069FE%2F202209%2F44C5C1037925EC78.ttf;fontSize=16;fontColor=#14161A;endArrow=classic;endFill=1;startSize=32;exitX=0.5;exitY=1;exitDx=0;exitDy=0;" edge="1" parent="iegD0AUWYdg6uXx5Z0E7-8" source="A4E6ttJ7izZQIFZgkszB-15" target="A4E6ttJ7izZQIFZgkszB-19">
          <mxGeometry relative="1" as="geometry">
            <Array as="points">
              <mxPoint x="490" y="170" />
              <mxPoint x="716" y="170" />
            </Array>
          </mxGeometry>
        </mxCell>
        <mxCell id="A4E6ttJ7izZQIFZgkszB-15" value="标准版客户？" style="rhombus;whiteSpace=wrap;html=1;fontSize=16;fontFamily=阿里汉仪智能黑体;fillColor=#FFFFFF;fontColor=#14161A;sketch=0;fontSource=https%3A%2F%2Fhellowebfonts.oss-cn-beijing.aliyuncs.com%2F698F3099-E62F-4C3B-B30A-04FB735069FE%2F202209%2F44C5C1037925EC78.ttf;" vertex="1" parent="iegD0AUWYdg6uXx5Z0E7-8">
          <mxGeometry x="430" y="57" width="120" height="80" as="geometry" />
        </mxCell>
        <mxCell id="A4E6ttJ7izZQIFZgkszB-16" value="" style="edgeStyle=orthogonalEdgeStyle;rounded=0;orthogonalLoop=1;jettySize=auto;html=1;fontFamily=阿里汉仪智能黑体;fontSource=https%3A%2F%2Fhellowebfonts.oss-cn-beijing.aliyuncs.com%2F698F3099-E62F-4C3B-B30A-04FB735069FE%2F202209%2F44C5C1037925EC78.ttf;fontSize=16;fontColor=#14161A;endArrow=classic;endFill=1;startSize=32;" edge="1" parent="iegD0AUWYdg6uXx5Z0E7-8" source="V6nitjvZ4vmrLIBDQCaR-1" target="A4E6ttJ7izZQIFZgkszB-15">
          <mxGeometry relative="1" as="geometry" />
        </mxCell>
        <mxCell id="A4E6ttJ7izZQIFZgkszB-18" value="" style="verticalLabelPosition=bottom;verticalAlign=top;html=1;shape=mxgraph.flowchart.on-page_reference;strokeColor=default;fontFamily=阿里汉仪智能黑体;fontSource=https%3A%2F%2Fhellowebfonts.oss-cn-beijing.aliyuncs.com%2F698F3099-E62F-4C3B-B30A-04FB735069FE%2F202209%2F44C5C1037925EC78.ttf;fontSize=16;fontColor=#14161A;startSize=32;fillColor=#FFFFFF;" vertex="1" parent="iegD0AUWYdg6uXx5Z0E7-8">
          <mxGeometry x="611" y="35" width="32" height="32" as="geometry" />
        </mxCell>
        <mxCell id="A4E6ttJ7izZQIFZgkszB-19" value="" style="verticalLabelPosition=bottom;verticalAlign=top;html=1;shape=mxgraph.flowchart.on-page_reference;strokeColor=default;fontFamily=阿里汉仪智能黑体;fontSource=https%3A%2F%2Fhellowebfonts.oss-cn-beijing.aliyuncs.com%2F698F3099-E62F-4C3B-B30A-04FB735069FE%2F202209%2F44C5C1037925EC78.ttf;fontSize=16;fontColor=#14161A;startSize=32;fillColor=#FFFFFF;" vertex="1" parent="iegD0AUWYdg6uXx5Z0E7-8">
          <mxGeometry x="700" y="88" width="32" height="32" as="geometry" />
        </mxCell>
        <mxCell id="7iW2Jj4gjVRusgc40Ibj-9" style="edgeStyle=orthogonalEdgeStyle;rounded=0;orthogonalLoop=1;jettySize=auto;html=1;fontFamily=阿里汉仪智能黑体;fontSource=https%3A%2F%2Fhellowebfonts.oss-cn-beijing.aliyuncs.com%2F698F3099-E62F-4C3B-B30A-04FB735069FE%2F202209%2F44C5C1037925EC78.ttf;fontSize=16;fontColor=#14161A;startSize=32;exitX=0.5;exitY=1;exitDx=0;exitDy=0;" edge="1" parent="1" source="7iW2Jj4gjVRusgc40Ibj-5" target="LIFJGfnc-sDyUZbHfwoA-2">
          <mxGeometry relative="1" as="geometry" />
        </mxCell>
        <mxCell id="A4E6ttJ7izZQIFZgkszB-17" style="edgeStyle=orthogonalEdgeStyle;rounded=0;orthogonalLoop=1;jettySize=auto;html=1;fontFamily=阿里汉仪智能黑体;fontSource=https%3A%2F%2Fhellowebfonts.oss-cn-beijing.aliyuncs.com%2F698F3099-E62F-4C3B-B30A-04FB735069FE%2F202209%2F44C5C1037925EC78.ttf;fontSize=16;fontColor=#14161A;endArrow=none;endFill=0;startSize=32;" edge="1" parent="1" source="A4E6ttJ7izZQIFZgkszB-8" target="A4E6ttJ7izZQIFZgkszB-18">
          <mxGeometry relative="1" as="geometry">
            <mxPoint x="767" y="650" as="targetPoint" />
          </mxGeometry>
        </mxCell>
        <mxCell id="A4E6ttJ7izZQIFZgkszB-20" style="edgeStyle=orthogonalEdgeStyle;rounded=0;orthogonalLoop=1;jettySize=auto;html=1;fontFamily=阿里汉仪智能黑体;fontSource=https%3A%2F%2Fhellowebfonts.oss-cn-beijing.aliyuncs.com%2F698F3099-E62F-4C3B-B30A-04FB735069FE%2F202209%2F44C5C1037925EC78.ttf;fontSize=16;fontColor=#14161A;endArrow=none;endFill=0;startSize=32;" edge="1" parent="1" source="A4E6ttJ7izZQIFZgkszB-11" target="A4E6ttJ7izZQIFZgkszB-19">
          <mxGeometry relative="1" as="geometry" />
        </mxCell>
      </root>
    </mxGraphModel>
  </diagram>
  <diagram id="l77EMzbHa6HTgD2Ri7cI" name="数据流图">
    <mxGraphModel dx="1422" dy="762" grid="1" gridSize="10" guides="1" tooltips="1" connect="1" arrows="1" fold="1" page="1" pageScale="1" pageWidth="827" pageHeight="1169" math="0" shadow="0">
      <root>
        <mxCell id="0" />
        <mxCell id="1" parent="0" />
        <mxCell id="ahsXPd4ZPynPTx6-KdXB-5" value="灰度策略" style="edgeStyle=orthogonalEdgeStyle;rounded=0;orthogonalLoop=1;jettySize=auto;html=1;fontFamily=阿里汉仪智能黑体;fontSource=https%3A%2F%2Fhellowebfonts.oss-cn-beijing.aliyuncs.com%2F698F3099-E62F-4C3B-B30A-04FB735069FE%2F202209%2F44C5C1037925EC78.ttf;fontSize=16;fontColor=#14161A;endArrow=classic;endFill=1;startSize=32;curved=1;" edge="1" parent="1" target="ahsXPd4ZPynPTx6-KdXB-7">
          <mxGeometry relative="1" as="geometry">
            <mxPoint x="50" y="175" as="sourcePoint" />
            <mxPoint x="170" y="175" as="targetPoint" />
          </mxGeometry>
        </mxCell>
        <mxCell id="ahsXPd4ZPynPTx6-KdXB-9" value="符合规则&lt;br&gt;用户名单" style="edgeStyle=orthogonalEdgeStyle;rounded=0;orthogonalLoop=1;jettySize=auto;html=1;fontFamily=阿里汉仪智能黑体;fontSource=https%3A%2F%2Fhellowebfonts.oss-cn-beijing.aliyuncs.com%2F698F3099-E62F-4C3B-B30A-04FB735069FE%2F202209%2F44C5C1037925EC78.ttf;fontSize=16;fontColor=#14161A;endArrow=classic;endFill=1;startSize=32;curved=1;" edge="1" parent="1" source="ahsXPd4ZPynPTx6-KdXB-7" target="ahsXPd4ZPynPTx6-KdXB-10">
          <mxGeometry relative="1" as="geometry">
            <mxPoint x="450" y="175" as="targetPoint" />
          </mxGeometry>
        </mxCell>
        <mxCell id="ahsXPd4ZPynPTx6-KdXB-7" value="1" style="swimlane;html=1;fontStyle=0;childLayout=stackLayout;horizontal=1;startSize=26;fillColor=#e0e0e0;horizontalStack=0;resizeParent=1;resizeLast=0;collapsible=1;marginBottom=0;swimlaneFillColor=#ffffff;align=center;rounded=1;shadow=0;comic=0;labelBackgroundColor=none;strokeWidth=1;fontFamily=阿里汉仪智能黑体;fontSize=16;fontSource=https%3A%2F%2Fhellowebfonts.oss-cn-beijing.aliyuncs.com%2F698F3099-E62F-4C3B-B30A-04FB735069FE%2F202209%2F44C5C1037925EC78.ttf;" vertex="1" parent="1">
          <mxGeometry x="200" y="149" width="140" height="52" as="geometry" />
        </mxCell>
        <mxCell id="ahsXPd4ZPynPTx6-KdXB-8" value="处理策略" style="text;html=1;strokeColor=none;fillColor=none;spacingLeft=4;spacingRight=4;whiteSpace=wrap;overflow=hidden;rotatable=0;points=[[0,0.5],[1,0.5]];portConstraint=eastwest;align=center;fontSize=16;fontFamily=阿里汉仪智能黑体;fontSource=https%3A%2F%2Fhellowebfonts.oss-cn-beijing.aliyuncs.com%2F698F3099-E62F-4C3B-B30A-04FB735069FE%2F202209%2F44C5C1037925EC78.ttf;" vertex="1" parent="ahsXPd4ZPynPTx6-KdXB-7">
          <mxGeometry y="26" width="140" height="26" as="geometry" />
        </mxCell>
        <mxCell id="ahsXPd4ZPynPTx6-KdXB-12" style="edgeStyle=orthogonalEdgeStyle;rounded=0;orthogonalLoop=1;jettySize=auto;html=1;fontFamily=阿里汉仪智能黑体;fontSource=https%3A%2F%2Fhellowebfonts.oss-cn-beijing.aliyuncs.com%2F698F3099-E62F-4C3B-B30A-04FB735069FE%2F202209%2F44C5C1037925EC78.ttf;fontSize=16;fontColor=#14161A;endArrow=classic;endFill=1;startSize=32;verticalAlign=top;curved=1;" edge="1" parent="1" source="ahsXPd4ZPynPTx6-KdXB-10">
          <mxGeometry relative="1" as="geometry">
            <mxPoint x="870" y="175" as="targetPoint" />
          </mxGeometry>
        </mxCell>
        <mxCell id="ahsXPd4ZPynPTx6-KdXB-13" value="灰度用户名单" style="edgeLabel;html=1;align=center;verticalAlign=middle;resizable=0;points=[];fontSize=16;fontFamily=阿里汉仪智能黑体;fontColor=#14161A;fontSource=https%3A%2F%2Fhellowebfonts.oss-cn-beijing.aliyuncs.com%2F698F3099-E62F-4C3B-B30A-04FB735069FE%2F202209%2F44C5C1037925EC78.ttf;" vertex="1" connectable="0" parent="ahsXPd4ZPynPTx6-KdXB-12">
          <mxGeometry x="0.3043" y="3" relative="1" as="geometry">
            <mxPoint x="-26" as="offset" />
          </mxGeometry>
        </mxCell>
        <mxCell id="ahsXPd4ZPynPTx6-KdXB-20" style="edgeStyle=orthogonalEdgeStyle;rounded=0;orthogonalLoop=1;jettySize=auto;html=1;fontFamily=阿里汉仪智能黑体;fontSource=https%3A%2F%2Fhellowebfonts.oss-cn-beijing.aliyuncs.com%2F698F3099-E62F-4C3B-B30A-04FB735069FE%2F202209%2F44C5C1037925EC78.ttf;fontSize=16;fontColor=#14161A;endArrow=classic;endFill=1;startSize=32;curved=1;exitX=1;exitY=0.5;exitDx=0;exitDy=0;" edge="1" parent="1" source="ahsXPd4ZPynPTx6-KdXB-11" target="ahsXPd4ZPynPTx6-KdXB-19">
          <mxGeometry relative="1" as="geometry" />
        </mxCell>
        <mxCell id="ahsXPd4ZPynPTx6-KdXB-10" value="2" style="swimlane;html=1;fontStyle=0;childLayout=stackLayout;horizontal=1;startSize=26;fillColor=#e0e0e0;horizontalStack=0;resizeParent=1;resizeLast=0;collapsible=1;marginBottom=0;swimlaneFillColor=#ffffff;align=center;rounded=1;shadow=0;comic=0;labelBackgroundColor=none;strokeWidth=1;fontFamily=阿里汉仪智能黑体;fontSize=16;fontSource=https%3A%2F%2Fhellowebfonts.oss-cn-beijing.aliyuncs.com%2F698F3099-E62F-4C3B-B30A-04FB735069FE%2F202209%2F44C5C1037925EC78.ttf;" vertex="1" parent="1">
          <mxGeometry x="550" y="149" width="140" height="52" as="geometry" />
        </mxCell>
        <mxCell id="ahsXPd4ZPynPTx6-KdXB-11" value="用户处理" style="text;html=1;strokeColor=none;fillColor=none;spacingLeft=4;spacingRight=4;whiteSpace=wrap;overflow=hidden;rotatable=0;points=[[0,0.5],[1,0.5]];portConstraint=eastwest;align=center;fontSize=16;fontFamily=阿里汉仪智能黑体;fontSource=https%3A%2F%2Fhellowebfonts.oss-cn-beijing.aliyuncs.com%2F698F3099-E62F-4C3B-B30A-04FB735069FE%2F202209%2F44C5C1037925EC78.ttf;" vertex="1" parent="ahsXPd4ZPynPTx6-KdXB-10">
          <mxGeometry y="26" width="140" height="26" as="geometry" />
        </mxCell>
        <mxCell id="ahsXPd4ZPynPTx6-KdXB-27" style="edgeStyle=orthogonalEdgeStyle;rounded=0;orthogonalLoop=1;jettySize=auto;html=1;fontFamily=阿里汉仪智能黑体;fontSource=https%3A%2F%2Fhellowebfonts.oss-cn-beijing.aliyuncs.com%2F698F3099-E62F-4C3B-B30A-04FB735069FE%2F202209%2F44C5C1037925EC78.ttf;fontSize=16;fontColor=#FFFFFF;endArrow=classic;endFill=1;startSize=32;curved=1;" edge="1" parent="1" source="ahsXPd4ZPynPTx6-KdXB-15" target="ahsXPd4ZPynPTx6-KdXB-7">
          <mxGeometry relative="1" as="geometry" />
        </mxCell>
        <mxCell id="ahsXPd4ZPynPTx6-KdXB-15" value="用户名单" style="html=1;dashed=0;whitespace=wrap;shape=partialRectangle;right=0;left=0;strokeColor=default;fontFamily=阿里汉仪智能黑体;fontSource=https%3A%2F%2Fhellowebfonts.oss-cn-beijing.aliyuncs.com%2F698F3099-E62F-4C3B-B30A-04FB735069FE%2F202209%2F44C5C1037925EC78.ttf;fontSize=16;fontColor=#14161A;startSize=32;fillColor=#FFFFFF;" vertex="1" parent="1">
          <mxGeometry x="330" y="280" width="100" height="30" as="geometry" />
        </mxCell>
        <mxCell id="ahsXPd4ZPynPTx6-KdXB-26" style="edgeStyle=orthogonalEdgeStyle;rounded=0;orthogonalLoop=1;jettySize=auto;html=1;fontFamily=阿里汉仪智能黑体;fontSource=https%3A%2F%2Fhellowebfonts.oss-cn-beijing.aliyuncs.com%2F698F3099-E62F-4C3B-B30A-04FB735069FE%2F202209%2F44C5C1037925EC78.ttf;fontSize=16;fontColor=#FFFFFF;endArrow=classic;endFill=1;startSize=32;curved=1;" edge="1" parent="1" source="ahsXPd4ZPynPTx6-KdXB-16" target="ahsXPd4ZPynPTx6-KdXB-15">
          <mxGeometry relative="1" as="geometry" />
        </mxCell>
        <mxCell id="ahsXPd4ZPynPTx6-KdXB-30" style="edgeStyle=orthogonalEdgeStyle;curved=1;rounded=0;orthogonalLoop=1;jettySize=auto;html=1;fontFamily=阿里汉仪智能黑体;fontSource=https%3A%2F%2Fhellowebfonts.oss-cn-beijing.aliyuncs.com%2F698F3099-E62F-4C3B-B30A-04FB735069FE%2F202209%2F44C5C1037925EC78.ttf;fontSize=16;fontColor=#FFFFFF;endArrow=classic;endFill=1;startSize=32;" edge="1" parent="1" target="ahsXPd4ZPynPTx6-KdXB-16">
          <mxGeometry relative="1" as="geometry">
            <mxPoint x="320" y="440" as="targetPoint" />
            <mxPoint x="230" y="436" as="sourcePoint" />
          </mxGeometry>
        </mxCell>
        <mxCell id="ahsXPd4ZPynPTx6-KdXB-31" value="用户变更通知单" style="edgeLabel;html=1;align=center;verticalAlign=middle;resizable=0;points=[];fontSize=16;fontFamily=阿里汉仪智能黑体;fontColor=#14161A;" vertex="1" connectable="0" parent="ahsXPd4ZPynPTx6-KdXB-30">
          <mxGeometry x="0.2885" y="-14" relative="1" as="geometry">
            <mxPoint x="-24" y="-24" as="offset" />
          </mxGeometry>
        </mxCell>
        <mxCell id="ahsXPd4ZPynPTx6-KdXB-32" style="edgeStyle=orthogonalEdgeStyle;curved=1;rounded=0;orthogonalLoop=1;jettySize=auto;html=1;fontFamily=阿里汉仪智能黑体;fontSource=https%3A%2F%2Fhellowebfonts.oss-cn-beijing.aliyuncs.com%2F698F3099-E62F-4C3B-B30A-04FB735069FE%2F202209%2F44C5C1037925EC78.ttf;fontSize=16;fontColor=#14161A;endArrow=classic;endFill=1;startSize=32;exitX=0.75;exitY=0;exitDx=0;exitDy=0;" edge="1" parent="1" source="ahsXPd4ZPynPTx6-KdXB-16" target="ahsXPd4ZPynPTx6-KdXB-10">
          <mxGeometry relative="1" as="geometry" />
        </mxCell>
        <mxCell id="ahsXPd4ZPynPTx6-KdXB-16" value="3" style="swimlane;html=1;fontStyle=0;childLayout=stackLayout;horizontal=1;startSize=26;fillColor=#e0e0e0;horizontalStack=0;resizeParent=1;resizeLast=0;collapsible=1;marginBottom=0;swimlaneFillColor=#ffffff;align=center;rounded=1;shadow=0;comic=0;labelBackgroundColor=none;strokeWidth=1;fontFamily=阿里汉仪智能黑体;fontSize=16;fontSource=https%3A%2F%2Fhellowebfonts.oss-cn-beijing.aliyuncs.com%2F698F3099-E62F-4C3B-B30A-04FB735069FE%2F202209%2F44C5C1037925EC78.ttf;" vertex="1" parent="1">
          <mxGeometry x="400" y="410" width="140" height="52" as="geometry" />
        </mxCell>
        <mxCell id="ahsXPd4ZPynPTx6-KdXB-17" value="系统用户名单" style="text;html=1;strokeColor=none;fillColor=none;spacingLeft=4;spacingRight=4;whiteSpace=wrap;overflow=hidden;rotatable=0;points=[[0,0.5],[1,0.5]];portConstraint=eastwest;align=center;fontSize=16;fontFamily=阿里汉仪智能黑体;fontSource=https%3A%2F%2Fhellowebfonts.oss-cn-beijing.aliyuncs.com%2F698F3099-E62F-4C3B-B30A-04FB735069FE%2F202209%2F44C5C1037925EC78.ttf;" vertex="1" parent="ahsXPd4ZPynPTx6-KdXB-16">
          <mxGeometry y="26" width="140" height="26" as="geometry" />
        </mxCell>
        <mxCell id="ahsXPd4ZPynPTx6-KdXB-23" style="edgeStyle=orthogonalEdgeStyle;rounded=0;orthogonalLoop=1;jettySize=auto;html=1;fontFamily=阿里汉仪智能黑体;fontSource=https%3A%2F%2Fhellowebfonts.oss-cn-beijing.aliyuncs.com%2F698F3099-E62F-4C3B-B30A-04FB735069FE%2F202209%2F44C5C1037925EC78.ttf;fontSize=16;fontColor=#14161A;endArrow=classic;endFill=1;startSize=32;curved=1;" edge="1" parent="1" source="ahsXPd4ZPynPTx6-KdXB-19" target="ahsXPd4ZPynPTx6-KdXB-21">
          <mxGeometry relative="1" as="geometry" />
        </mxCell>
        <mxCell id="ahsXPd4ZPynPTx6-KdXB-19" value="操作记录" style="html=1;dashed=0;whitespace=wrap;shape=partialRectangle;right=0;left=0;strokeColor=default;fontFamily=阿里汉仪智能黑体;fontSource=https%3A%2F%2Fhellowebfonts.oss-cn-beijing.aliyuncs.com%2F698F3099-E62F-4C3B-B30A-04FB735069FE%2F202209%2F44C5C1037925EC78.ttf;fontSize=16;fontColor=#14161A;startSize=32;fillColor=#FFFFFF;" vertex="1" parent="1">
          <mxGeometry x="660" y="270" width="100" height="30" as="geometry" />
        </mxCell>
        <mxCell id="ahsXPd4ZPynPTx6-KdXB-25" value="日志表" style="edgeStyle=orthogonalEdgeStyle;rounded=0;orthogonalLoop=1;jettySize=auto;html=1;fontFamily=阿里汉仪智能黑体;fontSource=https%3A%2F%2Fhellowebfonts.oss-cn-beijing.aliyuncs.com%2F698F3099-E62F-4C3B-B30A-04FB735069FE%2F202209%2F44C5C1037925EC78.ttf;fontSize=16;fontColor=#14161A;endArrow=classic;endFill=1;startSize=32;curved=1;" edge="1" parent="1" source="ahsXPd4ZPynPTx6-KdXB-21">
          <mxGeometry relative="1" as="geometry">
            <mxPoint x="987" y="426" as="targetPoint" />
          </mxGeometry>
        </mxCell>
        <mxCell id="ahsXPd4ZPynPTx6-KdXB-21" value="4" style="swimlane;html=1;fontStyle=0;childLayout=stackLayout;horizontal=1;startSize=26;fillColor=#e0e0e0;horizontalStack=0;resizeParent=1;resizeLast=0;collapsible=1;marginBottom=0;swimlaneFillColor=#ffffff;align=center;rounded=1;shadow=0;comic=0;labelBackgroundColor=none;strokeWidth=1;fontFamily=阿里汉仪智能黑体;fontSize=16;fontSource=https%3A%2F%2Fhellowebfonts.oss-cn-beijing.aliyuncs.com%2F698F3099-E62F-4C3B-B30A-04FB735069FE%2F202209%2F44C5C1037925EC78.ttf;" vertex="1" parent="1">
          <mxGeometry x="690" y="400" width="140" height="52" as="geometry" />
        </mxCell>
        <mxCell id="ahsXPd4ZPynPTx6-KdXB-22" value="日志" style="text;html=1;strokeColor=none;fillColor=none;spacingLeft=4;spacingRight=4;whiteSpace=wrap;overflow=hidden;rotatable=0;points=[[0,0.5],[1,0.5]];portConstraint=eastwest;align=center;fontSize=16;fontFamily=阿里汉仪智能黑体;fontSource=https%3A%2F%2Fhellowebfonts.oss-cn-beijing.aliyuncs.com%2F698F3099-E62F-4C3B-B30A-04FB735069FE%2F202209%2F44C5C1037925EC78.ttf;" vertex="1" parent="ahsXPd4ZPynPTx6-KdXB-21">
          <mxGeometry y="26" width="140" height="26" as="geometry" />
        </mxCell>
        <mxCell id="ahsXPd4ZPynPTx6-KdXB-24" value="0 层图" style="html=1;dashed=0;whitespace=wrap;strokeColor=none;fontFamily=阿里汉仪智能黑体;fontSource=https%3A%2F%2Fhellowebfonts.oss-cn-beijing.aliyuncs.com%2F698F3099-E62F-4C3B-B30A-04FB735069FE%2F202209%2F44C5C1037925EC78.ttf;fontSize=16;fontColor=#FFFFFF;startSize=32;fillColor=#8787F2;fontStyle=1" vertex="1" parent="1">
          <mxGeometry x="28.590000000000003" y="40" width="100" height="50" as="geometry" />
        </mxCell>
        <mxCell id="ahsXPd4ZPynPTx6-KdXB-33" value="1 层图" style="html=1;dashed=0;whitespace=wrap;strokeColor=none;fontFamily=阿里汉仪智能黑体;fontSource=https%3A%2F%2Fhellowebfonts.oss-cn-beijing.aliyuncs.com%2F698F3099-E62F-4C3B-B30A-04FB735069FE%2F202209%2F44C5C1037925EC78.ttf;fontSize=16;fontColor=#FFFFFF;startSize=32;fillColor=#8787F2;fontStyle=1" vertex="1" parent="1">
          <mxGeometry x="28.590000000000003" y="520" width="100" height="50" as="geometry" />
        </mxCell>
        <mxCell id="ahsXPd4ZPynPTx6-KdXB-35" value="灰度策略" style="edgeStyle=orthogonalEdgeStyle;rounded=0;orthogonalLoop=1;jettySize=auto;html=1;fontFamily=阿里汉仪智能黑体;fontSource=https%3A%2F%2Fhellowebfonts.oss-cn-beijing.aliyuncs.com%2F698F3099-E62F-4C3B-B30A-04FB735069FE%2F202209%2F44C5C1037925EC78.ttf;fontSize=16;fontColor=#14161A;endArrow=classic;endFill=1;startSize=32;curved=1;" edge="1" parent="1" target="ahsXPd4ZPynPTx6-KdXB-37">
          <mxGeometry relative="1" as="geometry">
            <mxPoint x="50" y="642" as="sourcePoint" />
            <mxPoint x="170" y="642" as="targetPoint" />
          </mxGeometry>
        </mxCell>
        <mxCell id="ahsXPd4ZPynPTx6-KdXB-36" value="符合规则&lt;br&gt;用户名单" style="edgeStyle=orthogonalEdgeStyle;rounded=0;orthogonalLoop=1;jettySize=auto;html=1;fontFamily=阿里汉仪智能黑体;fontSource=https%3A%2F%2Fhellowebfonts.oss-cn-beijing.aliyuncs.com%2F698F3099-E62F-4C3B-B30A-04FB735069FE%2F202209%2F44C5C1037925EC78.ttf;fontSize=16;fontColor=#14161A;endArrow=classic;endFill=1;startSize=32;curved=1;" edge="1" parent="1" source="ahsXPd4ZPynPTx6-KdXB-47">
          <mxGeometry relative="1" as="geometry">
            <mxPoint x="1020" y="642" as="targetPoint" />
            <mxPoint x="850" y="642" as="sourcePoint" />
          </mxGeometry>
        </mxCell>
        <mxCell id="ahsXPd4ZPynPTx6-KdXB-43" value="合法策略" style="edgeStyle=orthogonalEdgeStyle;curved=1;rounded=0;orthogonalLoop=1;jettySize=auto;html=1;fontFamily=阿里汉仪智能黑体;fontSource=https%3A%2F%2Fhellowebfonts.oss-cn-beijing.aliyuncs.com%2F698F3099-E62F-4C3B-B30A-04FB735069FE%2F202209%2F44C5C1037925EC78.ttf;fontSize=16;fontColor=#14161A;endArrow=classic;endFill=1;startSize=32;" edge="1" parent="1" source="ahsXPd4ZPynPTx6-KdXB-37" target="ahsXPd4ZPynPTx6-KdXB-41">
          <mxGeometry relative="1" as="geometry" />
        </mxCell>
        <mxCell id="ahsXPd4ZPynPTx6-KdXB-37" value="1.1" style="swimlane;html=1;fontStyle=0;childLayout=stackLayout;horizontal=1;startSize=26;fillColor=#e0e0e0;horizontalStack=0;resizeParent=1;resizeLast=0;collapsible=1;marginBottom=0;swimlaneFillColor=#ffffff;align=center;rounded=1;shadow=0;comic=0;labelBackgroundColor=none;strokeWidth=1;fontFamily=阿里汉仪智能黑体;fontSize=16;fontSource=https%3A%2F%2Fhellowebfonts.oss-cn-beijing.aliyuncs.com%2F698F3099-E62F-4C3B-B30A-04FB735069FE%2F202209%2F44C5C1037925EC78.ttf;" vertex="1" parent="1">
          <mxGeometry x="200" y="616" width="140" height="52" as="geometry" />
        </mxCell>
        <mxCell id="ahsXPd4ZPynPTx6-KdXB-38" value="检验策略" style="text;html=1;strokeColor=none;fillColor=none;spacingLeft=4;spacingRight=4;whiteSpace=wrap;overflow=hidden;rotatable=0;points=[[0,0.5],[1,0.5]];portConstraint=eastwest;align=center;fontSize=16;fontFamily=阿里汉仪智能黑体;fontSource=https%3A%2F%2Fhellowebfonts.oss-cn-beijing.aliyuncs.com%2F698F3099-E62F-4C3B-B30A-04FB735069FE%2F202209%2F44C5C1037925EC78.ttf;" vertex="1" parent="ahsXPd4ZPynPTx6-KdXB-37">
          <mxGeometry y="26" width="140" height="26" as="geometry" />
        </mxCell>
        <mxCell id="ahsXPd4ZPynPTx6-KdXB-44" style="edgeStyle=orthogonalEdgeStyle;curved=1;rounded=0;orthogonalLoop=1;jettySize=auto;html=1;fontFamily=阿里汉仪智能黑体;fontSource=https%3A%2F%2Fhellowebfonts.oss-cn-beijing.aliyuncs.com%2F698F3099-E62F-4C3B-B30A-04FB735069FE%2F202209%2F44C5C1037925EC78.ttf;fontSize=16;fontColor=#14161A;endArrow=classic;endFill=1;startSize=32;" edge="1" parent="1" source="ahsXPd4ZPynPTx6-KdXB-40" target="ahsXPd4ZPynPTx6-KdXB-41">
          <mxGeometry relative="1" as="geometry" />
        </mxCell>
        <mxCell id="ahsXPd4ZPynPTx6-KdXB-40" value="用户名单" style="html=1;dashed=0;whitespace=wrap;shape=partialRectangle;right=0;left=0;strokeColor=default;fontFamily=阿里汉仪智能黑体;fontSource=https%3A%2F%2Fhellowebfonts.oss-cn-beijing.aliyuncs.com%2F698F3099-E62F-4C3B-B30A-04FB735069FE%2F202209%2F44C5C1037925EC78.ttf;fontSize=16;fontColor=#14161A;startSize=32;fillColor=#FFFFFF;" vertex="1" parent="1">
          <mxGeometry x="340" y="747" width="100" height="30" as="geometry" />
        </mxCell>
        <mxCell id="ahsXPd4ZPynPTx6-KdXB-49" style="edgeStyle=orthogonalEdgeStyle;curved=1;rounded=0;orthogonalLoop=1;jettySize=auto;html=1;fontFamily=阿里汉仪智能黑体;fontSource=https%3A%2F%2Fhellowebfonts.oss-cn-beijing.aliyuncs.com%2F698F3099-E62F-4C3B-B30A-04FB735069FE%2F202209%2F44C5C1037925EC78.ttf;fontSize=16;fontColor=#14161A;endArrow=classic;endFill=1;startSize=32;" edge="1" parent="1" source="ahsXPd4ZPynPTx6-KdXB-41" target="ahsXPd4ZPynPTx6-KdXB-47">
          <mxGeometry relative="1" as="geometry" />
        </mxCell>
        <mxCell id="ahsXPd4ZPynPTx6-KdXB-41" value="1.2" style="swimlane;html=1;fontStyle=0;childLayout=stackLayout;horizontal=1;startSize=26;fillColor=#e0e0e0;horizontalStack=0;resizeParent=1;resizeLast=0;collapsible=1;marginBottom=0;swimlaneFillColor=#ffffff;align=center;rounded=1;shadow=0;comic=0;labelBackgroundColor=none;strokeWidth=1;fontFamily=阿里汉仪智能黑体;fontSize=16;fontSource=https%3A%2F%2Fhellowebfonts.oss-cn-beijing.aliyuncs.com%2F698F3099-E62F-4C3B-B30A-04FB735069FE%2F202209%2F44C5C1037925EC78.ttf;" vertex="1" parent="1">
          <mxGeometry x="480" y="616" width="140" height="52" as="geometry" />
        </mxCell>
        <mxCell id="ahsXPd4ZPynPTx6-KdXB-42" value="验证用户" style="text;html=1;strokeColor=none;fillColor=none;spacingLeft=4;spacingRight=4;whiteSpace=wrap;overflow=hidden;rotatable=0;points=[[0,0.5],[1,0.5]];portConstraint=eastwest;align=center;fontSize=16;fontFamily=阿里汉仪智能黑体;fontSource=https%3A%2F%2Fhellowebfonts.oss-cn-beijing.aliyuncs.com%2F698F3099-E62F-4C3B-B30A-04FB735069FE%2F202209%2F44C5C1037925EC78.ttf;" vertex="1" parent="ahsXPd4ZPynPTx6-KdXB-41">
          <mxGeometry y="26" width="140" height="26" as="geometry" />
        </mxCell>
        <mxCell id="ahsXPd4ZPynPTx6-KdXB-47" value="1.3" style="swimlane;html=1;fontStyle=0;childLayout=stackLayout;horizontal=1;startSize=26;fillColor=#e0e0e0;horizontalStack=0;resizeParent=1;resizeLast=0;collapsible=1;marginBottom=0;swimlaneFillColor=#ffffff;align=center;rounded=1;shadow=0;comic=0;labelBackgroundColor=none;strokeWidth=1;fontFamily=阿里汉仪智能黑体;fontSize=16;fontSource=https%3A%2F%2Fhellowebfonts.oss-cn-beijing.aliyuncs.com%2F698F3099-E62F-4C3B-B30A-04FB735069FE%2F202209%2F44C5C1037925EC78.ttf;" vertex="1" parent="1">
          <mxGeometry x="730" y="616" width="140" height="52" as="geometry" />
        </mxCell>
        <mxCell id="ahsXPd4ZPynPTx6-KdXB-48" value="确认是否设置策略" style="text;html=1;strokeColor=none;fillColor=none;spacingLeft=4;spacingRight=4;whiteSpace=wrap;overflow=hidden;rotatable=0;points=[[0,0.5],[1,0.5]];portConstraint=eastwest;align=center;fontSize=16;fontFamily=阿里汉仪智能黑体;fontSource=https%3A%2F%2Fhellowebfonts.oss-cn-beijing.aliyuncs.com%2F698F3099-E62F-4C3B-B30A-04FB735069FE%2F202209%2F44C5C1037925EC78.ttf;" vertex="1" parent="ahsXPd4ZPynPTx6-KdXB-47">
          <mxGeometry y="26" width="140" height="26" as="geometry" />
        </mxCell>
      </root>
    </mxGraphModel>
  </diagram>
  <diagram id="Lj4i5xikGkeL3RPXpjpq" name="纯 Nginx 方案">
    <mxGraphModel dx="1412" dy="556" grid="1" gridSize="10" guides="1" tooltips="1" connect="1" arrows="1" fold="1" page="1" pageScale="1" pageWidth="827" pageHeight="1169" math="0" shadow="0">
      <root>
        <mxCell id="0" />
        <mxCell id="1" parent="0" />
        <mxCell id="R74xd2Scuc7fx_sakegf-1" value="" style="edgeStyle=orthogonalEdgeStyle;rounded=0;orthogonalLoop=1;jettySize=auto;html=1;fontSize=12;fontColor=#000000;strokeColor=#000000;strokeWidth=1;" edge="1" parent="1">
          <mxGeometry relative="1" as="geometry">
            <mxPoint x="185" y="428" as="sourcePoint" />
            <mxPoint x="294" y="428" as="targetPoint" />
          </mxGeometry>
        </mxCell>
        <mxCell id="R74xd2Scuc7fx_sakegf-2" value="登录" style="edgeLabel;html=1;align=center;verticalAlign=middle;resizable=0;points=[];fontSize=12;fontColor=#000000;" vertex="1" connectable="0" parent="R74xd2Scuc7fx_sakegf-1">
          <mxGeometry x="-0.3028" y="-2" relative="1" as="geometry">
            <mxPoint as="offset" />
          </mxGeometry>
        </mxCell>
        <mxCell id="R74xd2Scuc7fx_sakegf-3" value="用户&amp;nbsp;" style="points=[[0.35,0,0],[0.98,0.51,0],[1,0.71,0],[0.67,1,0],[0,0.795,0],[0,0.65,0]];verticalLabelPosition=bottom;sketch=0;html=1;verticalAlign=top;aspect=fixed;align=center;pointerEvents=1;shape=mxgraph.cisco19.user;fillColor=#005073;strokeColor=none;dashed=1;fillStyle=auto;fontSize=12;fontColor=#000000;" vertex="1" parent="1">
          <mxGeometry x="125" y="405" width="60" height="60" as="geometry" />
        </mxCell>
        <mxCell id="R74xd2Scuc7fx_sakegf-4" value="" style="edgeStyle=orthogonalEdgeStyle;rounded=0;orthogonalLoop=1;jettySize=auto;html=1;fontSize=12;fontColor=#000000;strokeColor=#000000;strokeWidth=1;" edge="1" parent="1" source="R74xd2Scuc7fx_sakegf-5" target="R74xd2Scuc7fx_sakegf-8">
          <mxGeometry relative="1" as="geometry" />
        </mxCell>
        <mxCell id="Kba4ZXhFFM90eQ3G9MbU-1" value="set-cookie" style="edgeStyle=orthogonalEdgeStyle;rounded=0;orthogonalLoop=1;jettySize=auto;html=1;endArrow=classic;endFill=1;" edge="1" parent="1" source="R74xd2Scuc7fx_sakegf-5" target="R74xd2Scuc7fx_sakegf-3">
          <mxGeometry relative="1" as="geometry">
            <Array as="points">
              <mxPoint x="210" y="450" />
              <mxPoint x="210" y="450" />
            </Array>
          </mxGeometry>
        </mxCell>
        <mxCell id="R74xd2Scuc7fx_sakegf-5" value="前端界面" style="whiteSpace=wrap;html=1;verticalAlign=middle;sketch=0;fillStyle=auto;" vertex="1" parent="1">
          <mxGeometry x="294" y="405" width="120" height="60" as="geometry" />
        </mxCell>
        <mxCell id="R74xd2Scuc7fx_sakegf-6" value="" style="edgeStyle=orthogonalEdgeStyle;rounded=0;orthogonalLoop=1;jettySize=auto;html=1;fontSize=12;fontColor=#000000;strokeColor=#000000;strokeWidth=1;startArrow=none;" edge="1" parent="1" source="R74xd2Scuc7fx_sakegf-12" target="R74xd2Scuc7fx_sakegf-9">
          <mxGeometry relative="1" as="geometry" />
        </mxCell>
        <mxCell id="R74xd2Scuc7fx_sakegf-7" value="否" style="edgeLabel;html=1;align=center;verticalAlign=middle;resizable=0;points=[];fontSize=12;fontColor=#000000;" vertex="1" connectable="0" parent="R74xd2Scuc7fx_sakegf-6">
          <mxGeometry x="-0.3111" y="6" relative="1" as="geometry">
            <mxPoint as="offset" />
          </mxGeometry>
        </mxCell>
        <mxCell id="R74xd2Scuc7fx_sakegf-8" value="Nginx" style="shape=hexagon;perimeter=hexagonPerimeter2;whiteSpace=wrap;html=1;fixedSize=1;fontFamily=Helvetica;fontSize=12;fontColor=default;align=center;strokeColor=default;fillColor=default;sketch=0;fillStyle=auto;direction=south;" vertex="1" parent="1">
          <mxGeometry x="520" y="396" width="63" height="78" as="geometry" />
        </mxCell>
        <mxCell id="R74xd2Scuc7fx_sakegf-9" value="标准版" style="whiteSpace=wrap;html=1;verticalAlign=middle;sketch=0;fillStyle=auto;" vertex="1" parent="1">
          <mxGeometry x="840" y="405" width="120" height="60" as="geometry" />
        </mxCell>
        <mxCell id="R74xd2Scuc7fx_sakegf-10" value="" style="edgeStyle=orthogonalEdgeStyle;rounded=0;orthogonalLoop=1;jettySize=auto;html=1;fontSize=12;fontColor=#000000;strokeColor=#000000;strokeWidth=1;" edge="1" parent="1" source="R74xd2Scuc7fx_sakegf-12" target="R74xd2Scuc7fx_sakegf-17">
          <mxGeometry relative="1" as="geometry" />
        </mxCell>
        <mxCell id="R74xd2Scuc7fx_sakegf-11" value="是" style="edgeLabel;html=1;align=center;verticalAlign=middle;resizable=0;points=[];fontSize=12;fontColor=#000000;" vertex="1" connectable="0" parent="R74xd2Scuc7fx_sakegf-10">
          <mxGeometry x="-0.3" relative="1" as="geometry">
            <mxPoint as="offset" />
          </mxGeometry>
        </mxCell>
        <mxCell id="R74xd2Scuc7fx_sakegf-12" value="是否携带cookie" style="rhombus;whiteSpace=wrap;html=1;fillStyle=auto;fontSize=12;fontColor=#000000;strokeColor=default;strokeWidth=1;fillColor=#FFFFFF;" vertex="1" parent="1">
          <mxGeometry x="680" y="395" width="80" height="80" as="geometry" />
        </mxCell>
        <mxCell id="R74xd2Scuc7fx_sakegf-13" value="" style="edgeStyle=orthogonalEdgeStyle;rounded=0;orthogonalLoop=1;jettySize=auto;html=1;fontSize=12;fontColor=#000000;strokeColor=#000000;strokeWidth=1;endArrow=classic;endFill=1;" edge="1" parent="1" source="R74xd2Scuc7fx_sakegf-8" target="R74xd2Scuc7fx_sakegf-12">
          <mxGeometry relative="1" as="geometry">
            <mxPoint x="614" y="435" as="sourcePoint" />
            <mxPoint x="887" y="375" as="targetPoint" />
          </mxGeometry>
        </mxCell>
        <mxCell id="R74xd2Scuc7fx_sakegf-14" value="" style="edgeStyle=orthogonalEdgeStyle;rounded=0;orthogonalLoop=1;jettySize=auto;html=1;fontSize=12;fontColor=#000000;strokeColor=#000000;strokeWidth=1;exitX=0.5;exitY=1;exitDx=0;exitDy=0;" edge="1" parent="1" source="R74xd2Scuc7fx_sakegf-17" target="R74xd2Scuc7fx_sakegf-18">
          <mxGeometry relative="1" as="geometry" />
        </mxCell>
        <mxCell id="R74xd2Scuc7fx_sakegf-15" style="edgeStyle=orthogonalEdgeStyle;rounded=0;orthogonalLoop=1;jettySize=auto;html=1;fontSize=12;fontColor=#000000;strokeColor=#000000;strokeWidth=1;" edge="1" parent="1" source="R74xd2Scuc7fx_sakegf-17" target="R74xd2Scuc7fx_sakegf-19">
          <mxGeometry relative="1" as="geometry" />
        </mxCell>
        <mxCell id="R74xd2Scuc7fx_sakegf-16" style="edgeStyle=orthogonalEdgeStyle;rounded=0;orthogonalLoop=1;jettySize=auto;html=1;fontSize=12;fontColor=#000000;strokeColor=#000000;strokeWidth=1;exitX=0.5;exitY=1;exitDx=0;exitDy=0;" edge="1" parent="1" source="R74xd2Scuc7fx_sakegf-17" target="R74xd2Scuc7fx_sakegf-20">
          <mxGeometry relative="1" as="geometry" />
        </mxCell>
        <mxCell id="R74xd2Scuc7fx_sakegf-17" value="判断 cookie: appMode" style="whiteSpace=wrap;html=1;fillColor=#FFFFFF;fontColor=#000000;fillStyle=auto;strokeWidth=1;" vertex="1" parent="1">
          <mxGeometry x="660" y="575" width="120" height="60" as="geometry" />
        </mxCell>
        <mxCell id="R74xd2Scuc7fx_sakegf-18" value="标准版" style="whiteSpace=wrap;html=1;fillColor=#FFFFFF;fontColor=#000000;fillStyle=auto;strokeWidth=1;" vertex="1" parent="1">
          <mxGeometry x="500" y="715" width="120" height="60" as="geometry" />
        </mxCell>
        <mxCell id="R74xd2Scuc7fx_sakegf-19" value="抢先体验版" style="whiteSpace=wrap;html=1;fillColor=#FFFFFF;fontColor=#000000;fillStyle=auto;strokeWidth=1;" vertex="1" parent="1">
          <mxGeometry x="660" y="715" width="120" height="60" as="geometry" />
        </mxCell>
        <mxCell id="R74xd2Scuc7fx_sakegf-20" value="其他版本" style="whiteSpace=wrap;html=1;fillColor=#FFFFFF;fontColor=#000000;fillStyle=auto;strokeWidth=1;" vertex="1" parent="1">
          <mxGeometry x="827" y="715" width="120" height="60" as="geometry" />
        </mxCell>
      </root>
    </mxGraphModel>
  </diagram>
  <diagram id="s3nBgxkAsiC6--VtiUiS" name="简单">
    <mxGraphModel dx="1422" dy="762" grid="1" gridSize="10" guides="1" tooltips="1" connect="1" arrows="1" fold="1" page="1" pageScale="1" pageWidth="827" pageHeight="1169" math="0" shadow="0">
      <root>
        <mxCell id="0" />
        <mxCell id="1" parent="0" />
        <mxCell id="M6OOalRJjzKdrwSTGw9y-7" value="&lt;font style=&quot;font-size: 16px;&quot;&gt;Server contents&lt;/font&gt;" style="points=[[0,0],[0.25,0],[0.5,0],[0.75,0],[1,0],[1,0.25],[1,0.5],[1,0.75],[1,1],[0.75,1],[0.5,1],[0.25,1],[0,1],[0,0.75],[0,0.5],[0,0.25]];outlineConnect=0;gradientColor=none;html=1;whiteSpace=wrap;fontSize=16;fontStyle=0;container=1;pointerEvents=0;collapsible=0;recursiveResize=0;shape=mxgraph.aws4.group;grIcon=mxgraph.aws4.group_on_premise;strokeColor=#5A6C86;fillColor=none;verticalAlign=top;align=left;spacingLeft=30;fontColor=#5A6C86;dashed=0;" parent="1" vertex="1">
          <mxGeometry x="560" y="190" width="180" height="290" as="geometry" />
        </mxCell>
        <mxCell id="M6OOalRJjzKdrwSTGw9y-3" value="stable" style="shape=folder;fontStyle=1;tabWidth=110;tabHeight=30;tabPosition=left;html=1;boundedLbl=1;labelInHeader=1;container=1;collapsible=0;recursiveResize=0;fontSize=16;strokeWidth=1;" parent="M6OOalRJjzKdrwSTGw9y-7" vertex="1">
          <mxGeometry x="15" y="62.5" width="150" height="100" as="geometry" />
        </mxCell>
        <mxCell id="M6OOalRJjzKdrwSTGw9y-4" value="index.html" style="html=1;fontSize=16;strokeWidth=1;" parent="M6OOalRJjzKdrwSTGw9y-3" vertex="1">
          <mxGeometry width="110" height="30" relative="1" as="geometry">
            <mxPoint x="20" y="50" as="offset" />
          </mxGeometry>
        </mxCell>
        <mxCell id="M6OOalRJjzKdrwSTGw9y-5" value="canary" style="shape=folder;fontStyle=1;tabWidth=110;tabHeight=30;tabPosition=left;html=1;boundedLbl=1;labelInHeader=1;container=1;collapsible=0;recursiveResize=0;fontSize=16;strokeWidth=1;" parent="M6OOalRJjzKdrwSTGw9y-7" vertex="1">
          <mxGeometry x="15" y="180" width="150" height="100" as="geometry" />
        </mxCell>
        <mxCell id="M6OOalRJjzKdrwSTGw9y-6" value="index.html" style="html=1;fontSize=16;strokeWidth=1;" parent="M6OOalRJjzKdrwSTGw9y-5" vertex="1">
          <mxGeometry width="110" height="30" relative="1" as="geometry">
            <mxPoint x="20" y="50" as="offset" />
          </mxGeometry>
        </mxCell>
        <mxCell id="M6OOalRJjzKdrwSTGw9y-8" value="用户" style="points=[[0.35,0,0],[0.98,0.51,0],[1,0.71,0],[0.67,1,0],[0,0.795,0],[0,0.65,0]];verticalLabelPosition=bottom;sketch=0;html=1;verticalAlign=top;aspect=fixed;align=center;pointerEvents=1;shape=mxgraph.cisco19.user;fillColor=#005073;strokeColor=none;fontSize=16;" parent="1" vertex="1">
          <mxGeometry x="80" y="310" width="50" height="50" as="geometry" />
        </mxCell>
        <mxCell id="aE1wMNh-dKjX0wm2aifH-2" value="访问" style="edgeStyle=orthogonalEdgeStyle;rounded=0;orthogonalLoop=1;jettySize=auto;html=1;fontSize=16;endArrow=classic;endFill=1;" parent="1" source="M6OOalRJjzKdrwSTGw9y-8" target="aE1wMNh-dKjX0wm2aifH-3" edge="1">
          <mxGeometry relative="1" as="geometry">
            <mxPoint x="90" y="335" as="sourcePoint" />
            <mxPoint x="90" y="377.5" as="targetPoint" />
          </mxGeometry>
        </mxCell>
        <mxCell id="aE1wMNh-dKjX0wm2aifH-3" value="服务" style="swimlane;fontSize=15;strokeWidth=1;" parent="1" vertex="1">
          <mxGeometry x="240" y="190" width="220" height="290" as="geometry" />
        </mxCell>
        <mxCell id="aE1wMNh-dKjX0wm2aifH-11" style="edgeStyle=orthogonalEdgeStyle;rounded=0;orthogonalLoop=1;jettySize=auto;html=1;fontSize=16;endArrow=none;endFill=0;" parent="aE1wMNh-dKjX0wm2aifH-3" source="aE1wMNh-dKjX0wm2aifH-18" target="aE1wMNh-dKjX0wm2aifH-10" edge="1">
          <mxGeometry relative="1" as="geometry">
            <mxPoint x="94.5" y="62.299999999999955" as="sourcePoint" />
          </mxGeometry>
        </mxCell>
        <mxCell id="aE1wMNh-dKjX0wm2aifH-12" style="edgeStyle=orthogonalEdgeStyle;rounded=0;orthogonalLoop=1;jettySize=auto;html=1;fontSize=16;endArrow=none;endFill=0;" parent="aE1wMNh-dKjX0wm2aifH-3" source="aE1wMNh-dKjX0wm2aifH-8" target="aE1wMNh-dKjX0wm2aifH-10" edge="1">
          <mxGeometry relative="1" as="geometry" />
        </mxCell>
        <mxCell id="aE1wMNh-dKjX0wm2aifH-8" value="后端服务" style="rounded=0;whiteSpace=wrap;html=1;fontSize=16;strokeWidth=1;" parent="aE1wMNh-dKjX0wm2aifH-3" vertex="1">
          <mxGeometry x="27.25" y="140" width="90" height="40" as="geometry" />
        </mxCell>
        <mxCell id="aE1wMNh-dKjX0wm2aifH-13" style="edgeStyle=orthogonalEdgeStyle;rounded=0;orthogonalLoop=1;jettySize=auto;html=1;fontSize=16;endArrow=none;endFill=0;" parent="aE1wMNh-dKjX0wm2aifH-3" source="aE1wMNh-dKjX0wm2aifH-9" target="aE1wMNh-dKjX0wm2aifH-10" edge="1">
          <mxGeometry relative="1" as="geometry" />
        </mxCell>
        <mxCell id="aE1wMNh-dKjX0wm2aifH-9" value="前端代码" style="rounded=0;whiteSpace=wrap;html=1;fontSize=16;strokeWidth=1;" parent="aE1wMNh-dKjX0wm2aifH-3" vertex="1">
          <mxGeometry x="27.25" y="220" width="90" height="40" as="geometry" />
        </mxCell>
        <mxCell id="aE1wMNh-dKjX0wm2aifH-10" value="" style="shape=xor;whiteSpace=wrap;html=1;fontSize=16;strokeWidth=1;" parent="aE1wMNh-dKjX0wm2aifH-3" vertex="1">
          <mxGeometry x="170" y="140" width="30" height="40" as="geometry" />
        </mxCell>
        <mxCell id="aE1wMNh-dKjX0wm2aifH-18" value="nginx" style="rounded=0;whiteSpace=wrap;html=1;fontSize=16;strokeWidth=1;" parent="aE1wMNh-dKjX0wm2aifH-3" vertex="1">
          <mxGeometry x="27.25" y="60" width="90" height="40" as="geometry" />
        </mxCell>
        <mxCell id="aE1wMNh-dKjX0wm2aifH-5" value="&lt;font style=&quot;font-size: 16px;&quot;&gt;返回 html&lt;/font&gt;" style="edgeStyle=orthogonalEdgeStyle;rounded=0;orthogonalLoop=1;jettySize=auto;html=1;entryX=0.67;entryY=1;entryDx=0;entryDy=0;entryPerimeter=0;fontSize=14;endArrow=classic;endFill=1;exitX=0.5;exitY=1;exitDx=0;exitDy=0;" parent="1" source="M6OOalRJjzKdrwSTGw9y-7" target="M6OOalRJjzKdrwSTGw9y-8" edge="1">
          <mxGeometry relative="1" as="geometry" />
        </mxCell>
        <mxCell id="aE1wMNh-dKjX0wm2aifH-14" style="edgeStyle=orthogonalEdgeStyle;rounded=0;orthogonalLoop=1;jettySize=auto;html=1;fontSize=15;endArrow=classic;endFill=1;" parent="1" source="aE1wMNh-dKjX0wm2aifH-10" target="M6OOalRJjzKdrwSTGw9y-3" edge="1">
          <mxGeometry relative="1" as="geometry" />
        </mxCell>
        <mxCell id="aE1wMNh-dKjX0wm2aifH-15" style="edgeStyle=orthogonalEdgeStyle;rounded=0;orthogonalLoop=1;jettySize=auto;html=1;fontSize=15;endArrow=classic;endFill=1;" parent="1" source="aE1wMNh-dKjX0wm2aifH-10" target="M6OOalRJjzKdrwSTGw9y-5" edge="1">
          <mxGeometry relative="1" as="geometry" />
        </mxCell>
      </root>
    </mxGraphModel>
  </diagram>
</mxfile>
